<svg width="18" height="18" viewBox="0 0 18 18" fill="none" xmlns="http://www.w3.org/2000/svg">
<path d="M9 14.6346C7.4295 14.6346 6.09777 14.0881 5.00482 12.9952C3.91187 11.9022 3.3654 10.5705 3.3654 8.99998C3.3654 7.42948 3.91187 6.09615 5.00482 5C6.09777 3.90385 7.4295 3.35578 9 3.35578C10.5705 3.35578 11.9038 3.90385 13 5C14.0961 6.09615 14.6442 7.42948 14.6442 8.99998C14.6442 10.5705 14.0961 11.9022 13 12.9952C11.9038 14.0881 10.5705 14.6346 9 14.6346ZM8.40385 13.0885V10.425L6.52883 12.3C6.80704 12.5077 7.10063 12.6801 7.4096 12.8173C7.71858 12.9545 8.05 13.0449 8.40385 13.0885ZM9.59615 13.0885C9.93333 13.0449 10.2606 12.9561 10.5779 12.8221C10.8952 12.6881 11.193 12.5173 11.4712 12.3096L9.59615 10.4346V13.0885ZM12.3096 11.4712C12.5173 11.1929 12.6881 10.8952 12.8221 10.5779C12.9561 10.2606 13.0449 9.93331 13.0885 9.59613H10.4346L12.3096 11.4712ZM10.4346 8.40383H13.0885C13.0449 8.06664 12.9561 7.73939 12.8221 7.42208C12.6881 7.10478 12.5173 6.80702 12.3096 6.5288L10.4346 8.40383ZM9.59615 7.575L11.4712 5.69998C11.193 5.49228 10.8994 5.31983 10.5904 5.18265C10.2814 5.04547 9.95 4.95508 9.59615 4.9115V7.575ZM9 9.8365C9.23845 9.8365 9.43748 9.75669 9.5971 9.59708C9.75672 9.43746 9.83652 9.23843 9.83652 8.99998C9.83652 8.76153 9.75672 8.56249 9.5971 8.40288C9.43748 8.24326 9.23845 8.16345 9 8.16345C8.76155 8.16345 8.56252 8.24326 8.4029 8.40288C8.24328 8.56249 8.16348 8.76153 8.16348 8.99998C8.16348 9.23843 8.24328 9.43746 8.4029 9.59708C8.56252 9.75669 8.76155 9.8365 9 9.8365ZM8.40385 7.56538V4.9115C8.06667 4.95508 7.73942 5.04387 7.4221 5.17785C7.1048 5.31183 6.80704 5.48267 6.52883 5.69035L8.40385 7.56538ZM4.91152 8.40383H7.5654L5.69037 6.5288C5.48269 6.80702 5.31186 7.10478 5.17787 7.42208C5.04389 7.73939 4.95511 8.06664 4.91152 8.40383ZM5.69037 11.4712L7.5654 9.59613H4.9019C4.9519 9.93331 5.04549 10.2606 5.18268 10.5779C5.31986 10.8952 5.48909 11.1929 5.69037 11.4712ZM2.30772 17.5C1.80259 17.5 1.37502 17.325 1.02502 16.975C0.675025 16.625 0.500025 16.1974 0.500025 15.6923V2.3077C0.500025 1.80257 0.675025 1.375 1.02502 1.025C1.37502 0.675 1.80259 0.5 2.30772 0.5H15.6923C16.1974 0.5 16.625 0.675 16.975 1.025C17.325 1.375 17.5 1.80257 17.5 2.3077V15.6923C17.5 16.1974 17.325 16.625 16.975 16.975C16.625 17.325 16.1974 17.5 15.6923 17.5H2.30772ZM2.30772 16H15.6923C15.7692 16 15.8397 15.9679 15.9038 15.9038C15.9679 15.8397 16 15.7692 16 15.6923V2.3077C16 2.23077 15.9679 2.16024 15.9038 2.09613C15.8397 2.03203 15.7692 1.99998 15.6923 1.99998H2.30772C2.23079 1.99998 2.16027 2.03203 2.09615 2.09613C2.03205 2.16024 2 2.23077 2 2.3077V15.6923C2 15.7692 2.03205 15.8397 2.09615 15.9038C2.16027 15.9679 2.23079 16 2.30772 16Z" fill="#002F6C"/>
</svg>
