<svg width="20" height="20" viewBox="0 0 20 20" fill="none" xmlns="http://www.w3.org/2000/svg">
<g id="add_notes">
<mask id="mask0_115_4497" style="mask-type:alpha" maskUnits="userSpaceOnUse" x="0" y="0" width="20" height="20">
<rect id="Bounding box" width="20" height="20" fill="#D9D9D9"/>
</mask>
<g mask="url(#mask0_115_4497)">
<path id="add_notes_2" d="M4.88789 16.8542C4.3942 16.8542 3.98391 16.6908 3.65704 16.364C3.33018 16.0371 3.16675 15.6268 3.16675 15.1331V4.95039C3.16675 4.4567 3.33018 4.04641 3.65704 3.71954C3.98391 3.39268 4.3942 3.22925 4.88789 3.22925H15.1123C15.606 3.22925 16.0162 3.39268 16.3431 3.71954C16.67 4.04641 16.8334 4.4567 16.8334 4.95039V10.0129C16.6301 9.93824 16.4339 9.88405 16.2448 9.85031C16.0557 9.81657 15.8491 9.77782 15.6251 9.73406V4.95039C15.6251 4.8222 15.5717 4.70468 15.4648 4.59783C15.358 4.491 15.2405 4.43758 15.1123 4.43758H4.88789C4.7597 4.43758 4.64218 4.491 4.53533 4.59783C4.4285 4.70468 4.37508 4.8222 4.37508 4.95039V15.1331C4.37508 15.2613 4.4285 15.3788 4.53533 15.4857C4.64218 15.5925 4.7597 15.6459 4.88789 15.6459H9.08823C9.07901 15.8646 9.07323 16.0702 9.07089 16.2627C9.06856 16.4551 9.08555 16.6523 9.12187 16.8542H4.88789ZM4.37508 15.6459V4.43758V9.73406V9.67156V15.6459ZM6.08341 13.8911H9.29977C9.37241 13.6657 9.44691 13.4587 9.52327 13.27C9.59964 13.0814 9.7057 12.8856 9.84144 12.6828H6.08341V13.8911ZM6.08341 10.6459H11.7341C12.0076 10.4536 12.2909 10.2942 12.5842 10.1675C12.8775 10.0409 13.2041 9.96055 13.5642 9.92635V9.43758H6.08341V10.6459ZM6.08341 7.40073H13.9167V6.19239H6.08341V7.40073ZM14.9954 19.4087C13.9504 19.4087 13.0649 19.0442 12.339 18.3151C11.613 17.5861 11.2501 16.699 11.2501 15.654C11.2501 14.609 11.6146 13.7236 12.3437 12.9976C13.0728 12.2717 13.9598 11.9087 15.0048 11.9087C16.0498 11.9087 16.9353 12.2733 17.6612 13.0023C18.3871 13.7314 18.7501 14.6184 18.7501 15.6635C18.7501 16.7085 18.3855 17.5939 17.6565 18.3199C16.9274 19.0458 16.0404 19.4087 14.9954 19.4087ZM14.5129 17.6876H15.4456V16.1459H16.9873V15.2132H15.4456V13.6716H14.5129V15.2132H12.9712V16.1459H14.5129V17.6876Z" fill="#00A9DF"/>
</g>
</g>
</svg>
