<svg width="24" height="24" viewBox="0 0 24 24" fill="none" xmlns="http://www.w3.org/2000/svg">
<mask id="mask0_120_5390" style="mask-type:alpha" maskUnits="userSpaceOnUse" x="0" y="0" width="24" height="24">
<rect width="24" height="24" fill="#D9D9D9"/>
</mask>
<g mask="url(#mask0_120_5390)">
<path d="M11.175 13.8248H12.825V10.8248H15.825V9.17481H12.825V6.17481H11.175V9.17481H8.17503V10.8248H11.175V13.8248ZM12 19.6267C13.8628 18.0908 15.3696 16.4645 16.5202 14.7479C17.6709 13.0312 18.2462 11.5222 18.2462 10.221C18.2462 8.45814 17.6503 6.9482 16.4587 5.69115C15.267 4.4341 13.7808 3.80558 12 3.80558C10.2193 3.80558 8.73305 4.4341 7.54138 5.69115C6.34971 6.9482 5.75388 8.45814 5.75388 10.221C5.75388 11.5222 6.3292 13.027 7.47983 14.7354C8.63048 16.4437 10.1372 18.0742 12 19.6267ZM12 21.844C9.33337 19.5658 7.35067 17.4777 6.05196 15.5796C4.75324 13.6815 4.10388 11.8953 4.10388 10.221C4.10388 8.12224 4.84683 6.25653 6.33273 4.62383C7.81861 2.99115 9.70772 2.1748 12 2.1748C14.2923 2.1748 16.1814 2.99115 17.6673 4.62383C19.1532 6.25653 19.8962 8.12224 19.8962 10.221C19.8962 11.8953 19.2468 13.6815 17.9481 15.5796C16.6494 17.4777 14.6667 19.5658 12 21.844Z" fill="#002F6C"/>
</g>
</svg>
