<svg width="20" height="20" viewBox="0 0 20 20" fill="none" xmlns="http://www.w3.org/2000/svg">
<g id="add_circle">
<mask id="mask0_103_1835" style="mask-type:alpha" maskUnits="userSpaceOnUse" x="0" y="0" width="20" height="20">
<rect id="Bounding box" width="20" height="20" fill="#D9D9D9"/>
</mask>
<g mask="url(#mask0_103_1835)">
<path id="add_circle_2" d="M9.41663 13.9167H10.625V10.6251H13.9166V9.41675H10.625V6.08341H9.41663V9.41675H6.08329V10.6251H9.41663V13.9167ZM10.0085 17.8334C8.93087 17.8334 7.91583 17.6295 6.96338 17.2218C6.01092 16.814 5.17741 16.2531 4.46286 15.5392C3.74831 14.8253 3.18697 13.9928 2.77883 13.0418C2.3707 12.0908 2.16663 11.0746 2.16663 9.99331C2.16663 8.90845 2.37092 7.8917 2.7795 6.94306C3.1881 5.99441 3.75006 5.16165 4.46538 4.44479C5.1807 3.72793 6.01316 3.16904 6.96277 2.76812C7.91238 2.36721 8.92704 2.16675 10.0067 2.16675C11.0915 2.16675 12.1081 2.36702 13.0566 2.76756C14.0051 3.16812 14.8379 3.7266 15.555 4.44302C16.272 5.15944 16.831 5.99322 17.2319 6.94437C17.6328 7.89553 17.8333 8.91183 17.8333 9.99329C17.8333 11.0747 17.633 12.0893 17.2325 13.0371C16.8319 13.9848 16.2735 14.8167 15.5573 15.5326C14.8411 16.2486 14.0075 16.811 13.0566 17.22C12.1057 17.6289 11.0896 17.8334 10.0085 17.8334Z" fill="#00A9DF"/>
</g>
</g>
</svg>
