<svg width="24" height="24" viewBox="0 0 24 24" fill="none" xmlns="http://www.w3.org/2000/svg">
<g id="add_circle">
<mask id="mask0_120_5384" style="mask-type:alpha" maskUnits="userSpaceOnUse" x="0" y="0" width="24" height="24">
<rect id="Bounding box" width="24" height="24" fill="#D9D9D9"/>
</mask>
<g mask="url(#mask0_120_5384)">
<path id="add_circle_2" d="M11.2 16.9002H12.85V12.8502H16.9V11.2002H12.85V7.1002H11.2V11.2002H7.09995V12.8502H11.2V16.9002ZM12.0033 21.8002C10.6481 21.8002 9.374 21.543 8.18105 21.0287C6.9881 20.5144 5.95039 19.8164 5.06793 18.9347C4.18548 18.053 3.48687 17.0162 2.9721 15.8242C2.45733 14.6323 2.19995 13.3587 2.19995 12.0035C2.19995 10.6441 2.4576 9.36597 2.9729 8.16927C3.48822 6.97255 4.18757 5.93158 5.07095 5.04635C5.95433 4.16111 6.99114 3.46545 8.18135 2.95935C9.37158 2.45325 10.6433 2.2002 11.9966 2.2002C13.3559 2.2002 14.6339 2.45302 15.8304 2.95867C17.027 3.46434 18.068 4.15952 18.9535 5.04422C19.8389 5.92892 20.5347 6.96926 21.0408 8.16525C21.5469 9.36123 21.8 10.6391 21.8 11.9989C21.8 13.3588 21.5471 14.6323 21.0415 15.8196C20.5358 17.0069 19.8407 18.0426 18.9563 18.9267C18.0718 19.8109 17.0317 20.5108 15.836 21.0266C14.6403 21.5423 13.3628 21.8002 12.0033 21.8002ZM12 20.1502C14.2752 20.1502 16.2023 19.3607 17.7814 17.7816C19.3604 16.2025 20.15 14.2754 20.15 12.0002C20.15 9.72498 19.3604 7.79785 17.7814 6.2188C16.2023 4.63973 14.2752 3.8502 12 3.8502C9.72473 3.8502 7.7976 4.63973 6.21855 6.2188C4.63948 7.79785 3.84995 9.72498 3.84995 12.0002C3.84995 14.2754 4.63948 16.2025 6.21855 17.7816C7.7976 19.3607 9.72473 20.1502 12 20.1502Z" fill="#002F6C"/>
</g>
</g>
</svg>
