<svg width="25" height="24" viewBox="0 0 25 24" fill="none" xmlns="http://www.w3.org/2000/svg">
<mask id="mask0_81_3819" style="mask-type:alpha" maskUnits="userSpaceOnUse" x="0" y="0" width="25" height="24">
<rect x="0.5" width="24" height="24" fill="#D9D9D9"/>
</mask>
<g mask="url(#mask0_81_3819)">
<path d="M3.23077 20.1538V3.15381H12.2308V7.15381H21.7692V20.1538H3.23077ZM4.23077 19.1538H7.23077V16.1538H4.23077V19.1538ZM4.23077 15.1538H7.23077V12.1538H4.23077V15.1538ZM4.23077 11.1538H7.23077V8.15381H4.23077V11.1538ZM4.23077 7.15381H7.23077V4.15381H4.23077V7.15381ZM8.23077 19.1538H11.2308V16.1538H8.23077V19.1538ZM8.23077 15.1538H11.2308V12.1538H8.23077V15.1538ZM8.23077 11.1538H11.2308V8.15381H8.23077V11.1538ZM8.23077 7.15381H11.2308V4.15381H8.23077V7.15381ZM12.2308 19.1538H20.7692V8.15381H12.2308V11.1538H14.6154V12.1538H12.2308V15.1538H14.6154V16.1538H12.2308V19.1538ZM17 12.1538V11.1538H18V12.1538H17ZM17 16.1538V15.1538H18V16.1538H17Z" fill="#00A9DF"/>
</g>
</svg>