<svg width="20" height="20" viewBox="0 0 20 20" fill="none" xmlns="http://www.w3.org/2000/svg">
<mask id="mask0_162_1299" style="mask-type:alpha" maskUnits="userSpaceOnUse" x="0" y="0" width="20" height="20">
<rect width="20" height="20" fill="#D9D9D9"/>
</mask>
<g mask="url(#mask0_162_1299)">
<path d="M13.6819 2.00801C13.6479 1.97001 12.4229 2.02301 11.3569 3.18C10.2909 4.336 10.4549 5.66199 10.4789 5.69599C10.5029 5.72999 11.9989 5.78299 12.9539 4.43799C13.9089 3.093 13.7159 2.04701 13.6819 2.00801ZM16.9959 13.7409C16.9479 13.6449 14.6709 12.507 14.8829 10.319C15.0949 8.12998 16.5579 7.52998 16.5809 7.46498C16.6039 7.39998 15.9839 6.67498 15.3269 6.30799C14.8445 6.04924 14.3106 5.901 13.7639 5.87399C13.6559 5.87099 13.2809 5.77899 12.5099 5.98999C12.0019 6.12899 10.8569 6.57898 10.5419 6.59698C10.2259 6.61498 9.2859 6.07499 8.2749 5.93199C7.62791 5.80699 6.94191 6.06299 6.45091 6.25999C5.96092 6.45598 5.02892 7.01398 4.37692 8.49697C3.72493 9.97897 4.06593 12.327 4.30992 13.057C4.55392 13.7859 4.93492 14.9809 5.58292 15.8529C6.15892 16.8369 6.92291 17.5199 7.24191 17.7519C7.56091 17.9839 8.4609 18.1379 9.0849 17.8189C9.5869 17.5109 10.4929 17.3339 10.8509 17.3469C11.2079 17.3599 11.9119 17.5009 12.6329 17.8859C13.2039 18.0829 13.7439 18.0009 14.2849 17.7809C14.8259 17.5599 15.6089 16.7219 16.5229 15.0229C16.8699 14.2329 17.0279 13.8059 16.9959 13.7409Z" fill="#717276"/>
<path d="M13.6819 2.00801C13.6479 1.97001 12.4229 2.02301 11.3569 3.18C10.2909 4.336 10.4549 5.66199 10.4789 5.69599C10.5029 5.72999 11.9989 5.78299 12.9539 4.43799C13.9089 3.093 13.7159 2.04701 13.6819 2.00801ZM16.9959 13.7409C16.9479 13.6449 14.6709 12.507 14.8829 10.319C15.0949 8.12998 16.5579 7.52998 16.5809 7.46498C16.6039 7.39998 15.9839 6.67498 15.3269 6.30799C14.8445 6.04924 14.3106 5.901 13.7639 5.87399C13.6559 5.87099 13.2809 5.77899 12.5099 5.98999C12.0019 6.12899 10.8569 6.57898 10.5419 6.59698C10.2259 6.61498 9.2859 6.07499 8.2749 5.93199C7.62791 5.80699 6.94191 6.06299 6.45091 6.25999C5.96092 6.45598 5.02892 7.01398 4.37692 8.49697C3.72493 9.97897 4.06593 12.327 4.30992 13.057C4.55392 13.7859 4.93492 14.9809 5.58292 15.8529C6.15892 16.8369 6.92291 17.5199 7.24191 17.7519C7.56091 17.9839 8.4609 18.1379 9.0849 17.8189C9.5869 17.5109 10.4929 17.3339 10.8509 17.3469C11.2079 17.3599 11.9119 17.5009 12.6329 17.8859C13.2039 18.0829 13.7439 18.0009 14.2849 17.7809C14.8259 17.5599 15.6089 16.7219 16.5229 15.0229C16.8699 14.2329 17.0279 13.8059 16.9959 13.7409Z" fill="#717276"/>
</g>
</svg>
