<svg width="60" height="60" viewBox="0 0 60 60" fill="none" xmlns="http://www.w3.org/2000/svg">
<rect width="60" height="60" rx="30" fill="#1F2024"/>
<path d="M33.9774 20.01C33.9349 19.9625 32.4037 20.0288 31.0712 21.475C29.7387 22.92 29.9437 24.5775 29.9737 24.62C30.0037 24.6625 31.8737 24.7287 33.0674 23.0475C34.2612 21.3663 34.0199 20.0588 33.9774 20.01ZM38.1199 34.6762C38.0599 34.5562 35.2137 33.1337 35.4787 30.3987C35.7436 27.6625 37.5724 26.9125 37.6011 26.8312C37.6299 26.75 36.8549 25.8437 36.0336 25.385C35.4307 25.0615 34.7633 24.8762 34.0799 24.8425C33.9449 24.8387 33.4762 24.7237 32.5124 24.9875C31.8774 25.1612 30.4462 25.7237 30.0524 25.7462C29.6574 25.7687 28.4824 25.0937 27.2187 24.915C26.4099 24.7587 25.5525 25.0787 24.9387 25.325C24.3262 25.57 23.1612 26.2675 22.3462 28.1212C21.5312 29.9737 21.9575 32.9087 22.2625 33.8212C22.5675 34.7324 23.0437 36.2262 23.8537 37.3162C24.5737 38.5462 25.5287 39.3999 25.9274 39.6899C26.3262 39.9799 27.4512 40.1724 28.2312 39.7737C28.8587 39.3887 29.9912 39.1674 30.4387 39.1837C30.8849 39.1999 31.7649 39.3762 32.6662 39.8574C33.3799 40.1037 34.0549 40.0012 34.7312 39.7262C35.4074 39.4499 36.3861 38.4024 37.5286 36.2787C37.9624 35.2912 38.1599 34.7574 38.1199 34.6762Z" fill="white"/>
<path d="M33.9774 20.01C33.9349 19.9625 32.4037 20.0288 31.0712 21.475C29.7387 22.92 29.9437 24.5775 29.9737 24.62C30.0037 24.6625 31.8737 24.7287 33.0674 23.0475C34.2612 21.3663 34.0199 20.0588 33.9774 20.01ZM38.1199 34.6762C38.0599 34.5562 35.2137 33.1337 35.4787 30.3987C35.7436 27.6625 37.5724 26.9125 37.6011 26.8312C37.6299 26.75 36.8549 25.8437 36.0336 25.385C35.4307 25.0615 34.7633 24.8762 34.0799 24.8425C33.9449 24.8387 33.4762 24.7237 32.5124 24.9875C31.8774 25.1612 30.4462 25.7237 30.0524 25.7462C29.6574 25.7687 28.4824 25.0937 27.2187 24.915C26.4099 24.7587 25.5525 25.0787 24.9387 25.325C24.3262 25.57 23.1612 26.2675 22.3462 28.1212C21.5312 29.9737 21.9575 32.9087 22.2625 33.8212C22.5675 34.7324 23.0437 36.2262 23.8537 37.3162C24.5737 38.5462 25.5287 39.3999 25.9274 39.6899C26.3262 39.9799 27.4512 40.1724 28.2312 39.7737C28.8587 39.3887 29.9912 39.1674 30.4387 39.1837C30.8849 39.1999 31.7649 39.3762 32.6662 39.8574C33.3799 40.1037 34.0549 40.0012 34.7312 39.7262C35.4074 39.4499 36.3861 38.4024 37.5286 36.2787C37.9624 35.2912 38.1599 34.7574 38.1199 34.6762Z" fill="white"/>
</svg>
