<svg width="24" height="25" viewBox="0 0 24 25" fill="none" xmlns="http://www.w3.org/2000/svg">
<mask id="mask0_91_1075" style="mask-type:alpha" maskUnits="userSpaceOnUse" x="0" y="0" width="24" height="25">
<rect y="0.5" width="24" height="24" fill="#D9D9D9"/>
</mask>
<g mask="url(#mask0_91_1075)">
<path d="M2 24.4999V21.5H22V24.4999H2ZM6 16.9134H7.23653L15.5366 8.62876L14.9077 7.99028L14.2846 7.37683L6 15.6769V16.9134ZM4.50003 18.4134V15.0384L15.7097 3.84418C15.8545 3.69932 16.0189 3.58971 16.2029 3.51536C16.3869 3.44099 16.5783 3.40381 16.7771 3.40381C16.976 3.40381 17.1686 3.44099 17.355 3.51536C17.5414 3.58971 17.7122 3.70445 17.8673 3.85958L19.0692 5.07688C19.2243 5.22175 19.3365 5.38765 19.4057 5.57458C19.475 5.76153 19.5096 5.95471 19.5096 6.15411C19.5096 6.34106 19.4745 6.52703 19.4043 6.71201C19.3341 6.89699 19.2224 7.06603 19.0692 7.21913L7.87497 18.4134H4.50003ZM15.5366 8.62876L14.9077 7.99028L14.2846 7.37683L15.5366 8.62876Z" fill="#C8C9CC"/>
</g>
</svg>
