<svg width="24" height="24" viewBox="0 0 24 24" fill="none" xmlns="http://www.w3.org/2000/svg">
<mask id="mask0_91_1074" style="mask-type:alpha" maskUnits="userSpaceOnUse" x="0" y="0" width="24" height="24">
<rect width="24" height="24" fill="#D9D9D9"/>
</mask>
<g mask="url(#mask0_91_1074)">
<path d="M2 23.9999V21H22V23.9999H2ZM6 16.4134H7.23653L15.5366 8.12876L14.9077 7.49028L14.2846 6.87683L6 15.1769V16.4134ZM4.50003 17.9134V14.5384L15.7097 3.34418C15.8545 3.19932 16.0189 3.08971 16.2029 3.01536C16.3869 2.94099 16.5783 2.90381 16.7771 2.90381C16.976 2.90381 17.1686 2.94099 17.355 3.01536C17.5414 3.08971 17.7122 3.20445 17.8673 3.35958L19.0692 4.57688C19.2243 4.72175 19.3365 4.88765 19.4057 5.07458C19.475 5.26153 19.5096 5.45471 19.5096 5.65411C19.5096 5.84106 19.4745 6.02703 19.4043 6.21201C19.3341 6.39699 19.2224 6.56603 19.0692 6.71913L7.87497 17.9134H4.50003ZM15.5366 8.12876L14.9077 7.49028L14.2846 6.87683L15.5366 8.12876Z" fill="#959699"/>
</g>
</svg>
