<svg width="18" height="16" viewBox="0 0 18 16" fill="none" xmlns="http://www.w3.org/2000/svg">
<path d="M2.61535 13.5V14.75C2.61535 14.9625 2.54347 15.1406 2.39972 15.2843C2.25599 15.4281 2.07787 15.5 1.86537 15.5H1.25002C1.03752 15.5 0.8594 15.4281 0.71565 15.2843C0.5719 15.1406 0.500025 14.9625 0.500025 14.75V7.0769L2.54235 1.25C2.6167 1.02052 2.75323 0.838151 2.95195 0.702901C3.15067 0.567634 3.37182 0.5 3.6154 0.5H14.4231C14.6571 0.5 14.8696 0.56875 15.0605 0.70625C15.2514 0.84375 15.3838 1.025 15.4577 1.25L17.5 7.0769V14.75C17.5 14.9625 17.4281 15.1406 17.2844 15.2843C17.1406 15.4281 16.9625 15.5 16.75 15.5H16.1346C15.9221 15.5 15.744 15.4281 15.6003 15.2843C15.4565 15.1406 15.3847 14.9625 15.3847 14.75V13.5H2.61535ZM2.60768 5.57695H15.3923L14.1308 1.99998H3.86923L2.60768 5.57695ZM4.4638 10.8461C4.82767 10.8461 5.1362 10.7188 5.3894 10.4641C5.64262 10.2093 5.76923 9.90004 5.76923 9.53618C5.76923 9.17231 5.64187 8.86378 5.38715 8.61058C5.13243 8.35736 4.82314 8.23075 4.45928 8.23075C4.09541 8.23075 3.78687 8.35811 3.53365 8.61283C3.28045 8.86754 3.15385 9.17683 3.15385 9.5407C3.15385 9.90457 3.28121 10.2131 3.53593 10.4663C3.79064 10.7195 4.09993 10.8461 4.4638 10.8461ZM13.5407 10.8461C13.9046 10.8461 14.2131 10.7188 14.4663 10.4641C14.7195 10.2093 14.8462 9.90004 14.8462 9.53618C14.8462 9.17231 14.7188 8.86378 14.4641 8.61058C14.2094 8.35736 13.9001 8.23075 13.5362 8.23075C13.1723 8.23075 12.8638 8.35811 12.6106 8.61283C12.3574 8.86754 12.2308 9.17683 12.2308 9.5407C12.2308 9.90457 12.3581 10.2131 12.6129 10.4663C12.8676 10.7195 13.1769 10.8461 13.5407 10.8461ZM2 12H16V7.0769H2V12Z" fill="#C8C9CC"/>
</svg>
