<svg width="18" height="22" viewBox="0 0 18 22" fill="none" xmlns="http://www.w3.org/2000/svg">
<path d="M9.00228 4.03847C8.62898 4.03847 8.31091 3.9076 8.04808 3.64585C7.78526 3.3841 7.65386 3.06625 7.65386 2.69232C7.65386 2.38719 7.75706 2.06027 7.96348 1.71157C8.16988 1.36285 8.51539 0.933362 9.00001 0.423096C9.48462 0.933362 9.83013 1.36285 10.0365 1.71157C10.2429 2.06027 10.3462 2.38719 10.3462 2.69232C10.3462 3.06625 10.2155 3.3841 9.95418 3.64585C9.69286 3.9076 9.37556 4.03847 9.00228 4.03847ZM4.11766 4.03847C3.74436 4.03847 3.4263 3.9076 3.16348 3.64585C2.90066 3.3841 2.76926 3.06625 2.76926 2.69232C2.76926 2.38719 2.87246 2.06027 3.07886 1.71157C3.28527 1.36285 3.63079 0.933362 4.11541 0.423096C4.60002 0.933362 4.94553 1.36285 5.15193 1.71157C5.35833 2.06027 5.46153 2.38719 5.46153 2.69232C5.46153 3.06625 5.33088 3.3841 5.06958 3.64585C4.80826 3.9076 4.49096 4.03847 4.11766 4.03847ZM13.8869 4.03847C13.5136 4.03847 13.1955 3.9076 12.9327 3.64585C12.6699 3.3841 12.5385 3.06625 12.5385 2.69232C12.5385 2.38719 12.6417 2.06027 12.8481 1.71157C13.0545 1.36285 13.4 0.933362 13.8846 0.423096C14.3692 0.933362 14.7147 1.36285 14.9212 1.71157C15.1276 2.06027 15.2308 2.38719 15.2308 2.69232C15.2308 3.06625 15.1001 3.3841 14.8388 3.64585C14.5775 3.9076 14.2602 4.03847 13.8869 4.03847ZM2.61536 19.5V20.75C2.61536 20.9625 2.54348 21.1406 2.39973 21.2843C2.256 21.4281 2.07788 21.5 1.86538 21.5H1.25003C1.03753 21.5 0.859406 21.4281 0.715656 21.2843C0.571906 21.1406 0.500031 20.9625 0.500031 20.75V13.0769L2.54236 7.25002C2.61671 7.02054 2.75324 6.83817 2.95196 6.70292C3.15067 6.56765 3.37182 6.50002 3.61541 6.50002H14.4231C14.6571 6.50002 14.8696 6.56877 15.0605 6.70627C15.2514 6.84377 15.3838 7.02502 15.4577 7.25002L17.5 13.0769V20.75C17.5 20.9625 17.4281 21.1406 17.2844 21.2843C17.1406 21.4281 16.9625 21.5 16.75 21.5H16.1346C15.9221 21.5 15.744 21.4281 15.6003 21.2843C15.4565 21.1406 15.3847 20.9625 15.3847 20.75V19.5H2.61536ZM2.60768 11.577H15.3923L14.1308 8H3.86923L2.60768 11.577ZM4.46381 16.8461C4.82767 16.8461 5.13621 16.7188 5.38941 16.4641C5.64262 16.2094 5.76923 15.9001 5.76923 15.5362C5.76923 15.1723 5.64187 14.8638 5.38716 14.6106C5.13244 14.3574 4.82315 14.2308 4.45928 14.2308C4.09541 14.2308 3.78687 14.3581 3.53366 14.6128C3.28046 14.8676 3.15386 15.1769 3.15386 15.5407C3.15386 15.9046 3.28121 16.2131 3.53593 16.4663C3.79065 16.7195 4.09994 16.8461 4.46381 16.8461ZM13.5407 16.8461C13.9046 16.8461 14.2131 16.7188 14.4664 16.4641C14.7196 16.2094 14.8462 15.9001 14.8462 15.5362C14.8462 15.1723 14.7188 14.8638 14.4641 14.6106C14.2094 14.3574 13.9001 14.2308 13.5362 14.2308C13.1723 14.2308 12.8638 14.3581 12.6106 14.6128C12.3574 14.8676 12.2308 15.1769 12.2308 15.5407C12.2308 15.9046 12.3581 16.2131 12.6129 16.4663C12.8676 16.7195 13.1769 16.8461 13.5407 16.8461ZM2.00001 18H16V13.0769H2.00001V18Z" fill="#002F6C"/>
</svg>
