<svg width="20" height="20" viewBox="0 0 20 20" fill="none" xmlns="http://www.w3.org/2000/svg">
<g id="Group 762">
<circle id="Ellipse 11" cx="10" cy="10" r="8" fill="white"/>
<g id="draft_orders">
<mask id="mask0_66_1783" style="mask-type:alpha" maskUnits="userSpaceOnUse" x="0" y="0" width="20" height="20">
<rect id="Bounding box" width="20" height="20" fill="#D9D9D9"/>
</mask>
<g mask="url(#mask0_66_1783)">
<path id="draft_orders_2" d="M10.0071 17.5834C8.96392 17.5834 7.98142 17.386 7.05965 16.9913C6.13785 16.5966 5.33103 16.0534 4.63919 15.3619C3.94733 14.6704 3.40394 13.8642 3.00904 12.9434C2.61414 12.0227 2.41669 11.0388 2.41669 9.99192C2.41669 8.945 2.61405 7.96412 3.00877 7.04929C3.40349 6.13444 3.94662 5.3311 4.63815 4.63925C5.32969 3.94739 6.13585 3.40401 7.05662 3.0091C7.9774 2.6142 8.96124 2.41675 10.0081 2.41675C11.0551 2.41675 12.0359 2.61411 12.9508 3.00883C13.8656 3.40355 14.669 3.94668 15.3608 4.63821C16.0527 5.32975 16.5961 6.13428 16.991 7.05181C17.3859 7.96934 17.5833 8.94971 17.5833 9.99292C17.5833 11.0361 17.386 12.0186 16.9912 12.9404C16.5965 13.8622 16.0534 14.669 15.3619 15.3609C14.6703 16.0527 13.8658 16.5961 12.9482 16.991C12.0307 17.3859 11.0504 17.5834 10.0071 17.5834ZM10 16.5001C11.8056 16.5001 13.3403 15.8681 14.6042 14.6042C15.8681 13.3403 16.5 11.8056 16.5 10.0001C16.5 8.19451 15.8681 6.65978 14.6042 5.39589C13.3403 4.13201 11.8056 3.50006 10 3.50006C8.19444 3.50006 6.65972 4.13201 5.39583 5.39589C4.13194 6.65978 3.5 8.19451 3.5 10.0001C3.5 11.8056 4.13194 13.3403 5.39583 14.6042C6.65972 15.8681 8.19444 16.5001 10 16.5001ZM7.25644 12.7436V10.7501L11.5513 6.47604C11.6307 6.3998 11.7157 6.34415 11.8063 6.30908C11.8968 6.27403 11.9866 6.2565 12.0756 6.2565C12.1727 6.2565 12.267 6.27412 12.3583 6.30937C12.4496 6.34462 12.5326 6.39751 12.6074 6.46802L13.524 7.41354C13.5942 7.49297 13.6483 7.57826 13.6864 7.66942C13.7245 7.76058 13.7436 7.85096 13.7436 7.94056C13.7436 8.03016 13.726 8.12119 13.691 8.21367C13.6559 8.30612 13.6003 8.39144 13.524 8.4696L9.25 12.7436H7.25644ZM12.0625 8.89589L13 7.94558L12.0625 7.00006L11.125 7.95839L12.0625 8.89589Z" fill="#00A9DF"/>
</g>
</g>
</g>
</svg>
