<svg width="20" height="20" viewBox="0 0 20 20" fill="none" xmlns="http://www.w3.org/2000/svg">
<g id="check_circle">
<mask id="mask0_108_2782" style="mask-type:alpha" maskUnits="userSpaceOnUse" x="0" y="0" width="20" height="20">
<rect id="Bounding box" width="20" height="20" fill="#D9D9D9"/>
</mask>
<g mask="url(#mask0_108_2782)">
<path id="check_circle_2" d="M8.90554 12.8398L13.7773 7.98887L12.9167 7.12829L8.90554 11.1187L7.09304 9.327L6.23246 10.1876L8.90554 12.8398ZM10.0029 17.8334C8.92908 17.8334 7.91596 17.6295 6.9635 17.2218C6.01104 16.814 5.17753 16.2531 4.46298 15.5392C3.74844 14.8253 3.1871 13.9926 2.77896 13.041C2.37082 12.0893 2.16675 11.0767 2.16675 10.0029C2.16675 8.91164 2.37104 7.8917 2.77962 6.94306C3.18822 5.99441 3.75018 5.16165 4.4655 4.44479C5.18082 3.72793 6.01357 3.16904 6.96375 2.76812C7.91394 2.36721 8.92512 2.16675 9.99729 2.16675C11.0884 2.16675 12.1082 2.36702 13.0567 2.76756C14.0053 3.16812 14.838 3.7266 15.5551 4.44302C16.2721 5.15944 16.8311 5.99166 17.232 6.93971C17.633 7.88775 17.8334 8.90753 17.8334 9.99904C17.8334 11.0767 17.6331 12.0893 17.2326 13.0371C16.832 13.9848 16.2737 14.8167 15.5574 15.5326C14.8412 16.2486 14.0092 16.811 13.0614 17.22C12.1136 17.6289 11.0941 17.8334 10.0029 17.8334Z" fill="#00A9DF"/>
</g>
</g>
</svg>
