<svg width="24" height="24" viewBox="0 0 24 24" fill="none" xmlns="http://www.w3.org/2000/svg">
<mask id="mask0_169_2956" style="mask-type:alpha" maskUnits="userSpaceOnUse" x="0" y="0" width="24" height="24">
<rect width="24" height="24" fill="#D9D9D9"/>
</mask>
<g mask="url(#mask0_169_2956)">
<path d="M12 17.8845C12.327 17.8845 12.6107 17.7708 12.851 17.5433C13.0913 17.3158 13.2308 17.0321 13.2693 16.6923H10.7308C10.7693 17.0321 10.9087 17.3158 11.149 17.5433C11.3893 17.7708 11.673 17.8845 12 17.8845ZM7.76925 15.1538H16.2308V13.923H15.2308V11.2078C15.2308 10.3578 15.0067 9.58558 14.5587 8.89125C14.1106 8.19708 13.4884 7.759 12.6923 7.577V6.76925C12.6923 6.56225 12.6285 6.38867 12.501 6.2485C12.3733 6.1085 12.2063 6.0385 12 6.0385C11.7937 6.0385 11.6267 6.1085 11.499 6.2485C11.3715 6.38867 11.3077 6.56225 11.3077 6.76925V7.577C10.5116 7.759 9.88942 8.19067 9.44125 8.872C8.99325 9.5535 8.76925 10.3193 8.76925 11.1693V13.923H7.76925V15.1538ZM12.0033 21C10.7587 21 9.58867 20.7638 8.493 20.2915C7.3975 19.8192 6.4445 19.1782 5.634 18.3685C4.8235 17.5588 4.18192 16.6067 3.70925 15.512C3.23642 14.4175 3 13.2479 3 12.0033C3 10.7587 3.23617 9.58867 3.7085 8.493C4.18083 7.3975 4.82183 6.4445 5.6315 5.634C6.44117 4.8235 7.39333 4.18192 8.488 3.70925C9.5825 3.23642 10.7521 3 11.9967 3C13.2413 3 14.4113 3.23617 15.507 3.7085C16.6025 4.18083 17.5555 4.82183 18.366 5.6315C19.1765 6.44117 19.8181 7.39333 20.2908 8.488C20.7636 9.5825 21 10.7521 21 11.9967C21 13.2413 20.7638 14.4113 20.2915 15.507C19.8192 16.6025 19.1782 17.5555 18.3685 18.366C17.5588 19.1765 16.6067 19.8181 15.512 20.2908C14.4175 20.7636 13.2479 21 12.0033 21Z" fill="#00A9DF"/>
</g>
</svg>
