<svg width="20" height="20" viewBox="0 0 20 20" fill="none" xmlns="http://www.w3.org/2000/svg">
<g id="schedule">
<mask id="mask0_108_2918" style="mask-type:alpha" maskUnits="userSpaceOnUse" x="0" y="0" width="20" height="20">
<rect id="Bounding box" width="20" height="20" fill="#D9D9D9"/>
</mask>
<g mask="url(#mask0_108_2918)">
<path id="schedule_2" d="M12.9552 13.5033L13.8158 12.6427L10.6251 9.40996V4.91675H9.41675V9.96483L12.9552 13.5033ZM10.0029 17.8334C8.92387 17.8334 7.90944 17.6295 6.95958 17.2218C6.00973 16.814 5.17753 16.2531 4.46298 15.5392C3.74844 14.8253 3.1871 13.9928 2.77896 13.0418C2.37082 12.0908 2.16675 11.0746 2.16675 9.99331C2.16675 8.90845 2.37104 7.88823 2.77962 6.93264C3.18822 5.97705 3.75018 5.14429 4.4655 4.43437C5.18082 3.72446 6.01328 3.16904 6.96289 2.76812C7.91251 2.36721 8.92716 2.16675 10.0069 2.16675C11.0916 2.16675 12.1117 2.36869 13.0673 2.77256C14.0228 3.17645 14.8542 3.73202 15.5613 4.43927C16.2684 5.14652 16.8239 5.97819 17.2277 6.93429C17.6315 7.89039 17.8334 8.91197 17.8334 9.99904C17.8334 11.0819 17.6331 12.0959 17.2326 13.041C16.832 13.9861 16.2771 14.8167 15.5679 15.5326C14.8586 16.2486 14.0256 16.811 13.0691 17.22C12.1125 17.6289 11.0905 17.8334 10.0029 17.8334ZM10.01 16.6251C11.85 16.6251 13.4125 15.9792 14.6975 14.6876C15.9826 13.3959 16.6251 11.8301 16.6251 9.99014C16.6251 8.15019 15.9826 6.58769 14.6975 5.30264C13.4125 4.0176 11.85 3.37508 10.01 3.37508C8.17006 3.37508 6.60425 4.0176 5.31258 5.30264C4.02091 6.58769 3.37508 8.15019 3.37508 9.99014C3.37508 11.8301 4.02091 13.3959 5.31258 14.6876C6.60425 15.9792 8.17006 16.6251 10.01 16.6251Z" fill="#00A9DF"/>
</g>
</g>
</svg>
