<svg width="20" height="20" viewBox="0 0 20 20" fill="none" xmlns="http://www.w3.org/2000/svg">
<g id="credit_card">
<mask id="mask0_162_1317" style="mask-type:alpha" maskUnits="userSpaceOnUse" x="0" y="0" width="20" height="20">
<rect id="Bounding box" width="20" height="20" fill="#D9D9D9"/>
</mask>
<g mask="url(#mask0_162_1317)">
<path id="credit_card_2" d="M18.25 5.67321V14.327C18.25 14.8413 18.0674 15.2834 17.7023 15.6534C17.3372 16.0234 16.8926 16.2084 16.3685 16.2084H3.63146C3.11715 16.2084 2.675 16.0234 2.305 15.6534C1.935 15.2834 1.75 14.8413 1.75 14.327V5.67321C1.75 5.1589 1.935 4.71675 2.305 4.34675C2.675 3.97675 3.11715 3.79175 3.63146 3.79175H16.3685C16.8926 3.79175 17.3372 3.97675 17.7023 4.34675C18.0674 4.71675 18.25 5.1589 18.25 5.67321ZM3.375 6.87841H16.625V5.67321C16.625 5.60904 16.5983 5.55029 16.5448 5.49696C16.4915 5.44348 16.4327 5.41675 16.3685 5.41675H3.63146C3.56729 5.41675 3.50854 5.44348 3.45521 5.49696C3.40174 5.55029 3.375 5.60904 3.375 5.67321V6.87841ZM3.375 10.0801V14.327C3.375 14.3911 3.40174 14.4499 3.45521 14.5032C3.50854 14.5567 3.56729 14.5834 3.63146 14.5834H16.3685C16.4327 14.5834 16.4915 14.5567 16.5448 14.5032C16.5983 14.4499 16.625 14.3911 16.625 14.327V10.0801H3.375Z" fill="#00A9DF"/>
</g>
</g>
</svg>
