<svg width="20" height="20" viewBox="0 0 20 20" fill="none" xmlns="http://www.w3.org/2000/svg">
<g id="delete_forever">
<mask id="mask0_114_4147" style="mask-type:alpha" maskUnits="userSpaceOnUse" x="0" y="0" width="20" height="20">
<rect id="Bounding box" width="20" height="20" fill="#D9D9D9"/>
</mask>
<g mask="url(#mask0_114_4147)">
<path id="delete_forever_2" d="M8.33339 12.9408L10.0001 11.2741L11.6667 12.9408L12.4407 12.1668L10.7741 10.5001L12.4407 8.83342L11.6667 8.0594L10.0001 9.72606L8.33339 8.0594L7.55937 8.83342L9.22604 10.5001L7.55937 12.1668L8.33339 12.9408ZM6.7565 16.5834C6.38139 16.5834 6.06432 16.4539 5.80529 16.1949C5.54626 15.9358 5.41675 15.6188 5.41675 15.2436V5.50009H4.41675V4.41677H8.00006V3.51294H12.0001V4.41677H15.5834V5.50009H14.5834V15.2346C14.5834 15.6199 14.4539 15.941 14.1948 16.198C13.9358 16.4549 13.6187 16.5834 13.2436 16.5834H6.7565ZM13.5001 5.50009H6.50006V15.2436C6.50006 15.3078 6.52677 15.3665 6.58019 15.42C6.63362 15.4734 6.69239 15.5001 6.7565 15.5001H13.2436C13.3077 15.5001 13.3665 15.4734 13.4199 15.42C13.4734 15.3665 13.5001 15.3078 13.5001 15.2436V5.50009Z" fill="#FF0000"/>
</g>
</g>
</svg>
