<svg width="20" height="20" viewBox="0 0 20 20" fill="none" xmlns="http://www.w3.org/2000/svg">
<g id="event_available">
<mask id="mask0_120_5826" style="mask-type:alpha" maskUnits="userSpaceOnUse" x="0" y="0" width="20" height="20">
<rect id="Bounding box" width="20" height="20" fill="#D9D9D9"/>
</mask>
<g mask="url(#mask0_120_5826)">
<path id="event_available_2" d="M9.12499 15.4744L6.45191 12.8014L7.25961 11.9937L9.12499 13.8591L12.782 10.1812L13.5897 10.9889L9.12499 15.4744ZM4.8878 17.7918C4.40114 17.7918 3.99261 17.6241 3.66222 17.2889C3.33184 16.9537 3.16666 16.5476 3.16666 16.0706V5.84624C3.16666 5.36929 3.33184 4.9632 3.66222 4.62795C3.99261 4.29271 4.40114 4.12509 4.8878 4.12509H6.36216V2.01611H7.63459V4.12509H12.4295V2.01611H13.6378V4.12509H15.1122C15.5988 4.12509 16.0074 4.29271 16.3378 4.62795C16.6681 4.9632 16.8333 5.36929 16.8333 5.84624V16.0706C16.8333 16.5476 16.6681 16.9537 16.3378 17.2889C16.0074 17.6241 15.5988 17.7918 15.1122 17.7918H4.8878ZM4.8878 16.5834H15.1122C15.2404 16.5834 15.3579 16.53 15.4647 16.4232C15.5716 16.3163 15.625 16.1988 15.625 16.0706V9.09624H4.37499V16.0706C4.37499 16.1988 4.42841 16.3163 4.53524 16.4232C4.64209 16.53 4.75961 16.5834 4.8878 16.5834ZM4.37499 7.88791H15.625V5.84624C15.625 5.71804 15.5716 5.60052 15.4647 5.49368C15.3579 5.38684 15.2404 5.33343 15.1122 5.33343H4.8878C4.75961 5.33343 4.64209 5.38684 4.53524 5.49368C4.42841 5.60052 4.37499 5.71804 4.37499 5.84624V7.88791Z" fill="#717276"/>
</g>
</g>
</svg>
