<svg width="20" height="20" viewBox="0 0 20 20" fill="none" xmlns="http://www.w3.org/2000/svg">
<g id="border_color">
<mask id="mask0_66_1790" style="mask-type:alpha" maskUnits="userSpaceOnUse" x="0" y="0" width="20" height="20">
<rect id="Bounding box" width="20" height="20" fill="#D9D9D9"/>
</mask>
<g mask="url(#mask0_66_1790)">
<path id="border_color_2" d="M2 20V16H18V20H2ZM5.5 12.5H6.5625L12.375 6.6875L11.8333 6.125L11.3125 5.625L5.5 11.4375V12.5ZM4 14V10.8142L12.375 2.4375C12.5278 2.28472 12.6933 2.17361 12.8716 2.10417C13.0499 2.03472 13.2374 2 13.4341 2C13.6308 2 13.8194 2.03472 14 2.10417C14.1806 2.17361 14.3479 2.28431 14.5022 2.43627L15.5625 3.5C15.7153 3.65278 15.8264 3.81944 15.8958 4C15.9653 4.18056 16 4.37081 16 4.57077C16 4.75823 15.9656 4.94256 15.8969 5.12377C15.8281 5.30498 15.7188 5.47057 15.5688 5.62054L7.1875 14H4ZM12.375 6.6875L11.8333 6.125L11.3125 5.625L12.375 6.6875Z" fill="#00A9DF"/>
</g>
</g>
</svg>
