<svg width="19" height="22" viewBox="0 0 19 22" fill="none" xmlns="http://www.w3.org/2000/svg">
<path d="M2.84934 13.5V14.75C2.84934 14.9625 2.77447 15.1406 2.62473 15.2843C2.47501 15.4281 2.28947 15.5 2.06811 15.5H1.42712C1.20577 15.5 1.02022 15.4281 0.870483 15.2843C0.720744 15.1406 0.645874 14.9625 0.645874 14.75V7.0769L2.7733 1.25C2.85074 1.02052 2.99297 0.838151 3.19996 0.702901C3.40696 0.567634 3.63732 0.5 3.89106 0.5H15.1491C15.3928 0.5 15.6141 0.56875 15.813 0.70625C16.0118 0.84375 16.1498 1.025 16.2267 1.25L18.3542 7.0769V14.75C18.3542 14.9625 18.2793 15.1406 18.1296 15.2843C17.9798 15.4281 17.7943 15.5 17.5729 15.5H16.9319C16.7106 15.5 16.525 15.4281 16.3753 15.2843C16.2256 15.1406 16.1507 14.9625 16.1507 14.75V13.5H2.84934ZM2.84134 5.57695H16.1587L14.8446 1.99998H4.15546L2.84134 5.57695ZM4.77481 10.8461C5.15383 10.8461 5.47522 10.7188 5.73897 10.4641C6.00274 10.2093 6.13463 9.90004 6.13463 9.53618C6.13463 9.17231 6.00196 8.86378 5.73663 8.61058C5.4713 8.35736 5.14912 8.23075 4.77009 8.23075C4.39107 8.23075 4.06967 8.35811 3.8059 8.61283C3.54215 8.86754 3.41028 9.17684 3.41028 9.5407C3.41028 9.90457 3.54294 10.2131 3.80827 10.4663C4.0736 10.7195 4.39578 10.8461 4.77481 10.8461ZM14.2299 10.8461C14.609 10.8461 14.9304 10.7188 15.1941 10.4641C15.4579 10.2093 15.5898 9.90004 15.5898 9.53618C15.5898 9.17231 15.4571 8.86378 15.1918 8.61058C14.9264 8.35736 14.6043 8.23075 14.2252 8.23075C13.8462 8.23075 13.5248 8.35811 13.2611 8.61283C12.9973 8.86754 12.8654 9.17684 12.8654 9.5407C12.8654 9.90457 12.9981 10.2131 13.2634 10.4663C13.5287 10.7195 13.8509 10.8461 14.2299 10.8461ZM10.4716 21.8269L4.68233 19.0385H8.52848V17.1731L14.3177 19.9615H10.4716V21.8269ZM2.20835 12H16.7917V7.0769H2.20835V12Z" fill="#002F6C"/>
</svg>
