<svg width="20" height="20" viewBox="0 0 20 20" fill="none" xmlns="http://www.w3.org/2000/svg">
<path d="M13.7212 14.9577L14.8904 13.7885C14.984 13.6955 15.0308 13.5869 15.0308 13.4629C15.0308 13.3389 14.984 13.2301 14.8904 13.1366L11.2885 9.51923C11.3744 9.32948 11.4388 9.13172 11.4817 8.92595C11.5247 8.72018 11.5462 8.49102 11.5462 8.23845C11.5462 7.32287 11.2199 6.5398 10.5675 5.88925C9.91509 5.23872 9.12976 4.91345 8.21153 4.91345C7.94743 4.91345 7.69006 4.94586 7.43943 5.01068C7.1888 5.07549 6.94553 5.16552 6.70963 5.28075L8.92501 7.50575L7.44808 8.98268L5.21348 6.75768C5.09938 6.99229 5.00963 7.23684 4.94423 7.49133C4.87885 7.74581 4.84616 8.0051 4.84616 8.2692C4.84616 9.18743 5.17237 9.97276 5.82481 10.6252C6.47722 11.2776 7.26255 11.6038 8.18078 11.6038C8.41596 11.6038 8.63758 11.5807 8.84563 11.5346C9.05368 11.4884 9.25899 11.4256 9.46156 11.3461L13.0789 14.9481C13.1725 15.0417 13.2795 15.0901 13.4 15.0933C13.5205 15.0965 13.6276 15.0513 13.7212 14.9577ZM10.0017 19.5C8.68775 19.5 7.45271 19.2506 6.29658 18.752C5.14043 18.2533 4.13475 17.5765 3.27953 16.7217C2.4243 15.8669 1.74724 14.8616 1.24836 13.706C0.749472 12.5504 0.500031 11.3156 0.500031 10.0017C0.500031 8.68772 0.749364 7.45268 1.24803 6.29655C1.7467 5.1404 2.42345 4.13472 3.27828 3.2795C4.13313 2.42427 5.13837 1.74721 6.29401 1.24833C7.44962 0.749443 8.6844 0.5 9.99833 0.5C11.3123 0.5 12.5473 0.749334 13.7034 1.248C14.8596 1.74667 15.8653 2.42342 16.7205 3.27825C17.5757 4.1331 18.2528 5.13834 18.7517 6.29398C19.2505 7.44959 19.5 8.68437 19.5 9.9983C19.5 11.3122 19.2506 12.5473 18.752 13.7034C18.2533 14.8596 17.5766 15.8652 16.7217 16.7205C15.8669 17.5757 14.8616 18.2527 13.706 18.7516C12.5504 19.2505 11.3156 19.5 10.0017 19.5ZM10 18C12.2333 18 14.125 17.225 15.675 15.675C17.225 14.125 18 12.2333 18 9.99998C18 7.76664 17.225 5.87498 15.675 4.32498C14.125 2.77498 12.2333 1.99998 10 1.99998C7.76667 1.99998 5.87501 2.77498 4.32501 4.32498C2.77501 5.87498 2.00001 7.76664 2.00001 9.99998C2.00001 12.2333 2.77501 14.125 4.32501 15.675C5.87501 17.225 7.76667 18 10 18Z" fill="#002F6C"/>
</svg>
