<svg width="24" height="24" viewBox="0 0 24 24" fill="none" xmlns="http://www.w3.org/2000/svg">
<g id="quiz">
<mask id="mask0_40_5376" style="mask-type:alpha" maskUnits="userSpaceOnUse" x="0" y="0" width="24" height="24">
<rect id="Bounding box" width="24" height="24" fill="#D9D9D9"/>
</mask>
<g mask="url(#mask0_40_5376)">
<path id="quiz_2" d="M13.5 14.5385C13.7064 14.5385 13.8881 14.4599 14.0452 14.3029C14.2022 14.1458 14.2808 13.9641 14.2808 13.7577C14.2808 13.5513 14.2022 13.3696 14.0452 13.2125C13.8881 13.0555 13.7064 12.9769 13.5 12.9769C13.2936 12.9769 13.1119 13.0555 12.9548 13.2125C12.7978 13.3696 12.7192 13.5513 12.7192 13.7577C12.7192 13.9641 12.7978 14.1458 12.9548 14.3029C13.1119 14.4599 13.2936 14.5385 13.5 14.5385ZM13.0577 11.7231H13.9423C13.968 11.3038 14.034 10.9881 14.1404 10.776C14.2468 10.5638 14.5026 10.268 14.9077 9.88845C15.3308 9.50383 15.6257 9.16057 15.7923 8.85865C15.959 8.55673 16.0423 8.21026 16.0423 7.81922C16.0423 7.14616 15.8023 6.58494 15.3221 6.13557C14.842 5.68621 14.2346 5.46152 13.5 5.46152C12.9449 5.46152 12.4516 5.61153 12.0202 5.91153C11.5888 6.21152 11.2603 6.6205 11.0346 7.13845L11.8462 7.49615C12.0346 7.10513 12.2644 6.81187 12.5356 6.61635C12.8067 6.42083 13.1282 6.32307 13.5 6.32307C13.9769 6.32307 14.3724 6.46443 14.6865 6.74713C15.0006 7.02981 15.1577 7.39487 15.1577 7.8423C15.1577 8.1141 15.0814 8.36698 14.9289 8.60095C14.7763 8.83493 14.5141 9.11667 14.1423 9.44615C13.7205 9.8141 13.4343 10.1516 13.2837 10.4587C13.133 10.7657 13.0577 11.1872 13.0577 11.7231ZM8.11538 17C7.65513 17 7.27083 16.8458 6.9625 16.5375C6.65417 16.2292 6.5 15.8449 6.5 15.3846V4.61537C6.5 4.15512 6.65417 3.77083 6.9625 3.4625C7.27083 3.15417 7.65513 3 8.11538 3H18.8846C19.3449 3 19.7292 3.15417 20.0375 3.4625C20.3458 3.77083 20.5 4.15512 20.5 4.61537V15.3846C20.5 15.8449 20.3458 16.2292 20.0375 16.5375C19.7292 16.8458 19.3449 17 18.8846 17H8.11538ZM8.11538 16H18.8846C19.0385 16 19.1795 15.9359 19.3077 15.8077C19.4359 15.6795 19.5 15.5385 19.5 15.3846V4.61537C19.5 4.46154 19.4359 4.32052 19.3077 4.1923C19.1795 4.0641 19.0385 4 18.8846 4H8.11538C7.96154 4 7.82052 4.0641 7.6923 4.1923C7.5641 4.32052 7.5 4.46154 7.5 4.61537V15.3846C7.5 15.5385 7.5641 15.6795 7.6923 15.8077C7.82052 15.9359 7.96154 16 8.11538 16ZM5.11538 20C4.65513 20 4.27083 19.8458 3.9625 19.5375C3.65417 19.2292 3.5 18.8449 3.5 18.3846V6.61537H4.5V18.3846C4.5 18.5385 4.5641 18.6795 4.6923 18.8077C4.8205 18.9359 4.96153 19 5.11538 19H16.8846V20H5.11538Z" fill="#959699"/>
</g>
</g>
</svg>
