<svg width="20" height="20" viewBox="0 0 20 20" fill="none" xmlns="http://www.w3.org/2000/svg">
<g id="filter_alt">
<mask id="mask0_106_2428" style="mask-type:alpha" maskUnits="userSpaceOnUse" x="0" y="0" width="20" height="20">
<rect id="Bounding box" width="20" height="20" fill="#D9D9D9"/>
</mask>
<g mask="url(#mask0_106_2428)">
<path id="filter_alt_2" d="M9.82431 16.0834C9.61247 16.0834 9.42215 16.0066 9.25335 15.8531C9.08454 15.6996 9.00014 15.5167 9.00014 15.3045V10.7933L4.2726 5.03373C4.08457 4.80616 4.05269 4.5631 4.17695 4.30456C4.30123 4.04602 4.50885 3.91675 4.79983 3.91675H15.2004C15.4914 3.91675 15.699 4.04602 15.8233 4.30456C15.9475 4.5631 15.9157 4.80616 15.7276 5.03373L11.0001 10.7933V15.4295C11.0001 15.6278 10.9339 15.7864 10.8014 15.9052C10.669 16.024 10.5038 16.0834 10.3058 16.0834H9.82431Z" fill="#00A9DF"/>
</g>
</g>
</svg>
