<svg width="60" height="60" viewBox="0 0 60 60" fill="none" xmlns="http://www.w3.org/2000/svg">
<rect width="60" height="60" rx="30" fill="#ED3241"/>
<path d="M39.6064 28.1247C39.7313 28.7942 39.7994 29.4941 39.7994 30.2245C39.7994 35.9376 35.9757 40 30.2006 40C28.8873 40.0004 27.5868 39.742 26.3733 39.2396C25.1599 38.7372 24.0573 38.0006 23.1287 37.072C22.2 36.1433 21.4634 35.0407 20.961 33.8273C20.4586 32.6139 20.2002 31.3133 20.2006 30C20.2002 28.6867 20.4586 27.3861 20.961 26.1727C21.4634 24.9593 22.2 23.8567 23.1287 22.928C24.0573 21.9994 25.1599 21.2628 26.3733 20.7604C27.5868 20.258 28.8873 19.9996 30.2006 20C32.9008 20 35.1569 20.9935 36.888 22.6067L34.069 25.4256V25.4185C33.0196 24.4189 31.6878 23.9059 30.2006 23.9059C26.9012 23.9059 24.2193 26.6934 24.2193 29.9939C24.2193 33.2934 26.9012 36.087 30.2006 36.087C33.1943 36.087 35.2321 34.3753 35.6507 32.0246H30.2006V28.1247H39.6074H39.6064Z" fill="white"/>
</svg>
