<svg width="20" height="20" viewBox="0 0 20 20" fill="none" xmlns="http://www.w3.org/2000/svg">
<mask id="mask0_162_1306" style="mask-type:alpha" maskUnits="userSpaceOnUse" x="0" y="0" width="20" height="20">
<rect width="20" height="20" fill="#D9D9D9"/>
</mask>
<g mask="url(#mask0_162_1306)">
<path d="M17.8379 8.43737C17.9421 8.99524 17.9988 9.57851 17.9988 10.1872C17.9988 14.9481 14.8124 18.3334 9.99984 18.3334C8.90539 18.3337 7.82161 18.1184 6.81041 17.6998C5.79922 17.2811 4.88042 16.6673 4.10654 15.8934C3.33265 15.1195 2.71883 14.2007 2.30016 13.1895C1.88149 12.1783 1.66617 11.0945 1.6665 10.0001C1.66617 8.90564 1.88149 7.82186 2.30016 6.81066C2.71883 5.79946 3.33265 4.88067 4.10654 4.10678C4.88042 3.33289 5.79922 2.71908 6.81041 2.30041C7.82161 1.88174 8.90539 1.66641 9.99984 1.66675C12.2499 1.66675 14.1301 2.49466 15.5726 3.83897L13.2235 6.18812V6.18219C12.349 5.34919 11.2392 4.92169 9.99984 4.92169C7.25028 4.92169 5.01541 7.2446 5.01541 9.995C5.01541 12.7446 7.25028 15.0725 9.99984 15.0725C12.4946 15.0725 14.1927 13.6461 14.5415 11.6872H9.99984V8.43737H17.8388H17.8379Z" fill="#717276"/>
</g>
</svg>
