<svg width="24" height="24" viewBox="0 0 24 24" fill="none" xmlns="http://www.w3.org/2000/svg">
<g id="headset_mic">
<mask id="mask0_40_5384" style="mask-type:alpha" maskUnits="userSpaceOnUse" x="0" y="0" width="24" height="24">
<rect id="Bounding box" width="24" height="24" fill="#D9D9D9"/>
</mask>
<g mask="url(#mask0_40_5384)">
<path id="headset_mic_2" d="M12 21.3846V20.3846H18.3846C18.5641 20.3846 18.7115 20.3269 18.8269 20.2116C18.9423 20.0962 19 19.9487 19 19.7693V19H15.9231V12.8462H19V11C19 9.06667 18.3167 7.41667 16.95 6.05C15.5833 4.68333 13.9333 4 12 4C10.0667 4 8.41667 4.68333 7.05 6.05C5.68333 7.41667 5 9.06667 5 11V12.8462H8.07692V19H5.61538C5.15513 19 4.77083 18.8458 4.4625 18.5375C4.15417 18.2292 4 17.8449 4 17.3846V11C4 9.89487 4.20865 8.85737 4.62595 7.8875C5.04327 6.91763 5.61538 6.06923 6.3423 5.3423C7.06923 4.61538 7.91763 4.04327 8.8875 3.62595C9.85737 3.20865 10.8949 3 12 3C13.1051 3 14.1426 3.20865 15.1125 3.62595C16.0824 4.04327 16.9308 4.61538 17.6577 5.3423C18.3846 6.06923 18.9567 6.91763 19.374 7.8875C19.7913 8.85737 20 9.89487 20 11V19.7693C20 20.2295 19.8458 20.6138 19.5375 20.9221C19.2292 21.2305 18.8449 21.3846 18.3846 21.3846H12ZM5.61538 18H7.07693V13.8462H5V17.3846C5 17.5641 5.05769 17.7115 5.17308 17.8269C5.28846 17.9423 5.43589 18 5.61538 18ZM16.9231 18H19V13.8462H16.9231V18Z" fill="#959699"/>
</g>
</g>
</svg>
