<svg width="24" height="24" viewBox="0 0 24 24" fill="none" xmlns="http://www.w3.org/2000/svg">
<g id="id_card">
<mask id="mask0_40_5179" style="mask-type:alpha" maskUnits="userSpaceOnUse" x="0" y="0" width="24" height="24">
<rect id="Bounding box" width="24" height="24" fill="#D9D9D9"/>
</mask>
<g mask="url(#mask0_40_5179)">
<path id="id_card_2" d="M14.1538 12.4616H18.2308V11.4615H14.1538V12.4616ZM14.1538 9.6923H18.2308V8.6923H14.1538V9.6923ZM5.76922 15.3077H12.3846V15.1423C12.3846 14.559 12.0917 14.1074 11.5058 13.7875C10.9199 13.4676 10.1103 13.3077 9.07692 13.3077C8.04359 13.3077 7.23397 13.4676 6.64808 13.7875C6.06218 14.1074 5.76922 14.559 5.76922 15.1423V15.3077ZM9.07692 11.6923C9.49872 11.6923 9.85417 11.5478 10.1433 11.2587C10.4324 10.9696 10.5769 10.6141 10.5769 10.1923C10.5769 9.77052 10.4324 9.41507 10.1433 9.12595C9.85417 8.83685 9.49872 8.6923 9.07692 8.6923C8.65512 8.6923 8.29968 8.83685 8.01058 9.12595C7.72148 9.41507 7.57692 9.77052 7.57692 10.1923C7.57692 10.6141 7.72148 10.9696 8.01058 11.2587C8.29968 11.5478 8.65512 11.6923 9.07692 11.6923ZM4.61538 19C4.15513 19 3.77083 18.8458 3.4625 18.5375C3.15417 18.2292 3 17.8449 3 17.3846V6.61537C3 6.15512 3.15417 5.77083 3.4625 5.4625C3.77083 5.15417 4.15513 5 4.61538 5H19.3846C19.8449 5 20.2292 5.15417 20.5375 5.4625C20.8458 5.77083 21 6.15512 21 6.61537V17.3846C21 17.8449 20.8458 18.2292 20.5375 18.5375C20.2292 18.8458 19.8449 19 19.3846 19H4.61538ZM4.61538 18H19.3846C19.5385 18 19.6795 17.9359 19.8077 17.8077C19.9359 17.6795 20 17.5385 20 17.3846V6.61537C20 6.46154 19.9359 6.32052 19.8077 6.1923C19.6795 6.0641 19.5385 6 19.3846 6H4.61538C4.46154 6 4.32052 6.0641 4.1923 6.1923C4.0641 6.32052 4 6.46154 4 6.61537V17.3846C4 17.5385 4.0641 17.6795 4.1923 17.8077C4.32052 17.9359 4.46154 18 4.61538 18Z" fill="#959699"/>
</g>
</g>
</svg>
