<svg width="48" height="48" viewBox="0 0 48 48" fill="none" xmlns="http://www.w3.org/2000/svg">
<mask id="mask0_269_2034" style="mask-type:alpha" maskUnits="userSpaceOnUse" x="0" y="0" width="48" height="48">
<rect width="48" height="48" fill="#D9D9D9"/>
</mask>
<g mask="url(#mask0_269_2034)">
<path d="M8.99998 42.65C8.04231 42.65 7.19464 42.281 6.45698 41.543C5.71898 40.8053 5.34998 39.9576 5.34998 39V8.99998C5.34998 8.04264 5.71898 7.19498 6.45698 6.45698C7.19464 5.71898 8.04231 5.34998 8.99998 5.34998H39C39.9573 5.34998 40.805 5.71898 41.543 6.45698C42.281 7.19498 42.65 8.04264 42.65 8.99998V39C42.65 39.9576 42.281 40.8053 41.543 41.543C40.805 42.281 39.9573 42.65 39 42.65H8.99998ZM8.99998 39H39V8.99998H8.99998V39ZM11.35 34.55H36.7L28.95 24.2L22.3 32.85L17.6 26.45L11.35 34.55ZM17.006 19.8C17.816 19.8 18.4925 19.5348 19.0355 19.0045C19.5785 18.4741 19.85 17.804 19.85 16.994C19.85 16.184 19.5765 15.5075 19.0295 14.9645C18.4825 14.4215 17.804 14.15 16.994 14.15C16.184 14.15 15.5158 14.4235 14.9895 14.9705C14.4631 15.5175 14.2 16.196 14.2 17.006C14.2 17.816 14.4651 18.4841 14.9955 19.0105C15.5258 19.5368 16.196 19.8 17.006 19.8Z" fill="#1C1B1F"/>
</g>
</svg>
