<svg width="20" height="20" viewBox="0 0 20 20" fill="none" xmlns="http://www.w3.org/2000/svg">
<g id="text_snippet">
<mask id="mask0_125_6019" style="mask-type:alpha" maskUnits="userSpaceOnUse" x="0" y="0" width="20" height="20">
<rect id="Bounding box" width="20" height="20" fill="#D9D9D9"/>
</mask>
<g mask="url(#mask0_125_6019)">
<path id="text_snippet_2" d="M4.88783 15.6248H15.1122C15.2618 15.6248 15.3846 15.5768 15.4808 15.4806C15.5769 15.3845 15.625 15.2616 15.625 15.112V7.63607L12.3638 4.37484H4.88783C4.73826 4.37484 4.6154 4.42291 4.51925 4.51907C4.4231 4.61522 4.37502 4.73808 4.37502 4.88765V15.112C4.37502 15.2616 4.4231 15.3845 4.51925 15.4806C4.6154 15.5768 4.73826 15.6248 4.88783 15.6248ZM4.88783 16.8332C4.39414 16.8332 3.98385 16.6697 3.65698 16.3429C3.33012 16.016 3.16669 15.6057 3.16669 15.112V4.88765C3.16669 4.39396 3.33012 3.98367 3.65698 3.6568C3.98385 3.32993 4.39414 3.1665 4.88783 3.1665H12.8446L16.8334 7.15527V15.112C16.8334 15.6057 16.6699 16.016 16.3431 16.3429C16.0162 16.6697 15.6059 16.8332 15.1122 16.8332H4.88783ZM6.08335 13.7498H13.9167V12.5415H6.08335V13.7498ZM6.08335 10.854H13.9167V9.64567H6.08335V10.854ZM6.08335 7.95817H11.1507V6.74984H6.08335V7.95817Z" fill="#00A9DF"/>
</g>
</g>
</svg>
