<svg width="16" height="20" viewBox="0 0 16 20" fill="none" xmlns="http://www.w3.org/2000/svg">
<path d="M8.0017 9.86535C8.49928 9.86535 8.92467 9.68818 9.27787 9.33385C9.63107 8.97952 9.80768 8.55356 9.80768 8.05598C9.80768 7.55839 9.63051 7.133 9.27618 6.7798C8.92184 6.4266 8.49588 6.25 7.9983 6.25C7.50072 6.25 7.07533 6.42717 6.72213 6.7815C6.36893 7.13583 6.19233 7.56179 6.19233 8.05938C6.19233 8.55696 6.36949 8.98235 6.72382 9.33555C7.07816 9.68875 7.50412 9.86535 8.0017 9.86535ZM8 17.5135C9.9564 15.7622 11.4535 14.0824 12.4914 12.474C13.5292 10.8657 14.0481 9.45703 14.0481 8.24805C14.0481 6.42498 13.4689 4.92627 12.3106 3.7519C11.1522 2.57753 9.71538 1.99035 8 1.99035C6.28462 1.99035 4.84776 2.57753 3.68942 3.7519C2.53109 4.92627 1.95192 6.42498 1.95192 8.24805C1.95192 9.45703 2.47083 10.8657 3.50865 12.474C4.54648 14.0824 6.0436 15.7622 8 17.5135ZM8 19.5096C5.48335 17.3288 3.59618 15.2993 2.33848 13.4211C1.08079 11.5429 0.45195 9.81857 0.45195 8.24805C0.45195 5.94038 1.19843 4.07213 2.69138 2.64328C4.18431 1.21443 5.95385 0.5 8 0.5C10.0462 0.5 11.8157 1.21443 13.3086 2.64328C14.8016 4.07213 15.548 5.94038 15.548 8.24805C15.548 9.81857 14.9192 11.5429 13.6615 13.4211C12.4038 15.2993 10.5167 17.3288 8 19.5096Z" fill="#C8C9CC"/>
</svg>
