<svg width="191" height="128" viewBox="0 0 191 128" fill="none" xmlns="http://www.w3.org/2000/svg">
<path d="M134.753 77.5485H99.0808C98.8338 77.5499 98.5911 77.4839 98.3788 77.3575C98.1665 77.2311 97.9928 77.0492 97.8763 76.8314C97.7598 76.6135 97.7049 76.368 97.7177 76.1213C97.7304 75.8746 97.8103 75.6361 97.9486 75.4314C106.332 62.8996 111.132 53.0819 111.132 48.4988C111.179 46.3688 110.8 44.2508 110.017 42.2692C109.234 40.2876 108.064 38.4824 106.574 36.9593C105.084 35.4363 103.305 34.2262 101.341 33.4001C99.3772 32.5739 97.2681 32.1483 95.1375 32.1483C93.0069 32.1483 90.8978 32.5739 88.934 33.4001C86.9701 34.2262 85.191 35.4363 83.7012 36.9593C82.2113 38.4824 81.0407 40.2876 80.258 42.2692C79.4753 44.2508 79.0962 46.3688 79.1431 48.4988C79.1431 53.0974 83.9511 62.9151 92.3264 75.4314C92.4647 75.6361 92.5446 75.8746 92.5573 76.1213C92.5701 76.368 92.5153 76.6135 92.3987 76.8314C92.2822 77.0492 92.1085 77.2311 91.8962 77.3575C91.6839 77.4839 91.4412 77.5499 91.1942 77.5485H55.4676C55.2455 77.5492 55.0267 77.495 54.8305 77.3909C54.6343 77.2867 54.4669 77.1357 54.3431 76.9513C54.2171 76.7687 54.1378 76.558 54.1121 76.3376C54.0864 76.1173 54.1152 75.894 54.1958 75.6873L83.7107 0.860777C83.8105 0.606872 83.9845 0.388932 84.21 0.235382C84.4354 0.0818307 84.702 -0.000190984 84.9748 3.3393e-07H105.246C105.519 -0.000190984 105.785 0.0818307 106.011 0.235382C106.236 0.388932 106.41 0.606872 106.51 0.860777L136.017 75.6873C136.1 75.8927 136.131 76.1154 136.108 76.3357C136.085 76.556 136.009 76.7674 135.885 76.9513C135.759 77.1349 135.59 77.2851 135.393 77.3891C135.195 77.493 134.976 77.5478 134.753 77.5485Z" fill="#002F6C"/>
<path d="M95.1336 58.5957C95.1336 57.2679 94.8713 55.9531 94.3617 54.727C93.8522 53.5008 93.1055 52.3874 92.1644 51.4506C91.2233 50.5139 90.1065 49.7723 88.878 49.2684C87.6495 48.7645 86.3335 48.5083 85.0057 48.5144C86.3335 48.5205 87.6495 48.2643 88.878 47.7604C90.1065 47.2565 91.2233 46.5149 92.1644 45.5782C93.1055 44.6414 93.8522 43.528 94.3617 42.3018C94.8713 41.0757 95.1336 39.7609 95.1336 38.4331C95.1336 39.757 95.3943 41.0679 95.901 42.2911C96.4076 43.5142 97.1502 44.6255 98.0863 45.5617C99.0224 46.4978 100.134 47.2404 101.357 47.747C102.58 48.2536 103.891 48.5144 105.215 48.5144C102.541 48.5144 99.9769 49.5765 98.0863 51.4671C96.1957 53.3577 95.1336 55.922 95.1336 58.5957Z" fill="#00A9DF"/>
<path d="M18.8288 126.828L16.5023 121.671H4.00925L1.73709 126.828H0L9.39887 105.89H11.1825L20.5814 126.828H18.8288ZM15.8974 120.174L10.2674 107.425L4.63739 120.174H15.8974Z" fill="#002F6C"/>
<path d="M42.5044 105.866V118.887C42.5044 129.844 26.4596 129.875 26.4596 118.887V105.866H28.0494V118.887C28.0494 127.906 40.9224 127.875 40.9224 118.887V105.866H42.5044Z" fill="#002F6C"/>
<path d="M57.6496 107.332H50.0731V105.897H66.8391V107.332H59.2626V126.828H57.6496V107.332Z" fill="#002F6C"/>
<path d="M94.935 116.374C94.935 121.888 91.3988 127.184 84.3651 127.184C77.3315 127.184 73.7952 121.857 73.7952 116.328C73.7952 110.798 77.3004 105.548 84.3651 105.548C91.4298 105.548 94.935 110.713 94.935 116.374ZM75.385 116.374C75.385 121.105 78.4094 125.719 84.3651 125.719C90.3208 125.719 93.384 121.074 93.384 116.343C93.384 111.613 90.3906 107.037 84.3729 107.037C78.3551 107.037 75.3385 111.403 75.3695 116.343L75.385 116.374Z" fill="#002F6C"/>
<path d="M103.085 126.828V105.89H118.145V109.69H107.033V115.405H117.54V119.065H107.033V126.82L103.085 126.828Z" fill="#002F6C"/>
<path d="M129.607 105.866V123.167H140.378V126.828H125.644V105.89L129.607 105.866Z" fill="#002F6C"/>
<path d="M163.573 126.828H147.885V105.89H163.573V109.721H151.809V114.544H163.178V118.228H151.809V122.958H163.573V126.828Z" fill="#002F6C"/>
<path d="M185.667 105.866H190.009V106.045L182.914 116.227L190.219 126.704V126.828H185.791L180.424 118.949L175.066 126.828H170.638V126.704L177.912 116.227L170.847 106.045V105.866H175.19L180.424 113.683L185.667 105.866Z" fill="#002F6C"/>
</svg>
