<svg width="150" height="40" viewBox="0 0 150 40" fill="none" xmlns="http://www.w3.org/2000/svg">
<path d="M60.8639 24.0759L59.6639 21.4159H53.2199L52.0479 24.0759H51.1519L55.9999 13.2759H56.9199L61.7678 24.0759H60.8639ZM59.3519 20.6439L56.4479 14.0679L53.5439 20.6439H59.3519Z" fill="#002F6C"/>
<path d="M73.0759 13.2639V19.9799C73.0759 25.6319 64.7999 25.6479 64.7999 19.9799V13.2639H65.6199V19.9799C65.6199 24.6319 72.2599 24.6159 72.2599 19.9799V13.2639H73.0759Z" fill="#002F6C"/>
<path d="M80.8879 14.02H76.9799V13.28H85.6279V14.02H81.7199V24.076H80.8879V14.02Z" fill="#002F6C"/>
<path d="M100.12 18.6841C100.12 21.5281 98.2958 24.2601 94.6679 24.2601C91.0399 24.2601 89.2159 21.5121 89.2159 18.6601C89.2159 15.8081 91.0239 13.1001 94.6679 13.1001C98.3118 13.1001 100.12 15.7641 100.12 18.6841ZM90.0359 18.6841C90.0359 21.1241 91.5959 23.5041 94.6679 23.5041C97.7399 23.5041 99.3199 21.1081 99.3199 18.6681C99.3199 16.2281 97.7759 13.8681 94.6719 13.8681C91.5679 13.8681 90.0119 16.1201 90.0279 18.6681L90.0359 18.6841Z" fill="#002F6C"/>
<path d="M104.324 24.0759V13.2759H112.092V15.2359H106.36V18.1839H111.78V20.0719H106.36V24.0719L104.324 24.0759Z" fill="#002F6C"/>
<path d="M118.004 13.2639V22.1879H123.56V24.0759H115.96V13.2759L118.004 13.2639Z" fill="#002F6C"/>
<path d="M135.524 24.0759H127.432V13.2759H135.524V15.2519H129.456V17.7399H135.32V19.6399H129.456V22.0799H135.524V24.0759Z" fill="#002F6C"/>
<path d="M146.92 13.2639H149.16V13.3559L145.5 18.6079L149.268 24.0119V24.0759H146.984L144.216 20.0119L141.452 24.0759H139.168V24.0119L142.92 18.6079L139.276 13.3559V13.2639H141.516L144.216 17.2959L146.92 13.2639Z" fill="#002F6C"/>
<path d="M41.5999 40H23.1999C23.0724 40.0007 22.9472 39.9667 22.8377 39.9015C22.7282 39.8363 22.6386 39.7425 22.5785 39.6301C22.5184 39.5177 22.4902 39.3911 22.4967 39.2639C22.5033 39.1366 22.5445 39.0136 22.6159 38.908C26.9399 32.444 29.4159 27.38 29.4159 25.016C29.4401 23.9173 29.2446 22.8248 28.8408 21.8027C28.4371 20.7806 27.8333 19.8494 27.0648 19.0639C26.2963 18.2783 25.3787 17.6541 24.3657 17.228C23.3527 16.8018 22.2648 16.5823 21.1659 16.5823C20.0669 16.5823 18.979 16.8018 17.966 17.228C16.9531 17.6541 16.0354 18.2783 15.2669 19.0639C14.4985 19.8494 13.8946 20.7806 13.4909 21.8027C13.0872 22.8248 12.8917 23.9173 12.9159 25.016C12.9159 27.388 15.3959 32.452 19.7159 38.908C19.7872 39.0136 19.8284 39.1366 19.835 39.2639C19.8416 39.3911 19.8133 39.5177 19.7532 39.6301C19.6931 39.7425 19.6035 39.8363 19.494 39.9015C19.3845 39.9667 19.2593 40.0007 19.1319 40H0.703869C0.589311 40.0003 0.476436 39.9724 0.375258 39.9187C0.274081 39.865 0.187732 39.7871 0.12387 39.692C0.0588721 39.5978 0.0179576 39.4891 0.004708 39.3754C-0.00854156 39.2618 0.00627703 39.1466 0.047869 39.04L15.2719 0.443994C15.3233 0.313029 15.4131 0.200614 15.5294 0.121411C15.6457 0.0422088 15.7832 -9.85109e-05 15.9239 1.72243e-07H26.3799C26.5206 -9.85109e-05 26.6581 0.0422088 26.7744 0.121411C26.8907 0.200614 26.9804 0.313029 27.0319 0.443994L42.2519 39.04C42.2946 39.146 42.3108 39.2608 42.2989 39.3744C42.287 39.4881 42.2476 39.5971 42.1839 39.692C42.1186 39.7867 42.0314 39.8641 41.9297 39.9178C41.828 39.9714 41.7148 39.9996 41.5999 40Z" fill="#002F6C"/>
<path d="M21.1639 30.224C21.1639 29.5391 21.0286 28.8609 20.7658 28.2285C20.5029 27.596 20.1178 27.0217 19.6323 26.5385C19.1469 26.0553 18.5709 25.6728 17.9372 25.4129C17.3035 25.153 16.6248 25.0208 15.9399 25.024C16.6248 25.0271 17.3035 24.895 17.9372 24.6351C18.5709 24.3751 19.1469 23.9926 19.6323 23.5094C20.1178 23.0263 20.5029 22.4519 20.7658 21.8195C21.0286 21.187 21.1639 20.5089 21.1639 19.824C21.1639 20.5068 21.2984 21.183 21.5597 21.8139C21.821 22.4448 22.204 23.0181 22.6869 23.5009C23.1698 23.9838 23.743 24.3668 24.3739 24.6281C25.0048 24.8895 25.681 25.024 26.3639 25.024C24.9847 25.024 23.6621 25.5718 22.6869 26.547C21.7117 27.5222 21.1639 28.8448 21.1639 30.224Z" fill="#00A9DF"/>
</svg>
