<svg width="24" height="24" viewBox="0 0 24 24" fill="none" xmlns="http://www.w3.org/2000/svg">
<mask id="mask0_269_2455" style="mask-type:alpha" maskUnits="userSpaceOnUse" x="0" y="0" width="24" height="24">
<rect width="24" height="24" fill="#D9D9D9"/>
</mask>
<g mask="url(#mask0_269_2455)">
<path d="M5.32677 13.8499C4.81694 13.8499 4.38186 13.6683 4.02152 13.3052C3.66102 12.9422 3.48077 12.5057 3.48077 11.9959C3.48077 11.4861 3.66236 11.051 4.02552 10.6907C4.38852 10.3302 4.82494 10.1499 5.33477 10.1499C5.84461 10.1499 6.27977 10.3315 6.64027 10.6947C7.00061 11.0577 7.18077 11.4941 7.18077 12.0039C7.18077 12.5137 6.99927 12.9488 6.63627 13.3092C6.27311 13.6697 5.83661 13.8499 5.32677 13.8499ZM11.996 13.8499C11.4862 13.8499 11.0511 13.6683 10.6908 13.3052C10.3303 12.9422 10.15 12.5057 10.15 11.9959C10.15 11.4861 10.3316 11.051 10.6948 10.6907C11.0578 10.3302 11.4942 10.1499 12.004 10.1499C12.5139 10.1499 12.9489 10.3315 13.3093 10.6947C13.6698 11.0577 13.85 11.4941 13.85 12.0039C13.85 12.5137 13.6684 12.9488 13.3053 13.3092C12.9423 13.6697 12.5059 13.8499 11.996 13.8499ZM18.6653 13.8499C18.1554 13.8499 17.7203 13.6683 17.3598 13.3052C16.9994 12.9422 16.8193 12.5057 16.8193 11.9959C16.8193 11.4861 17.0008 11.051 17.3638 10.6907C17.7269 10.3302 18.1634 10.1499 18.6733 10.1499C19.1831 10.1499 19.6182 10.3315 19.9785 10.6947C20.339 11.0577 20.5193 11.4941 20.5193 12.0039C20.5193 12.5137 20.3377 12.9488 19.9745 13.3092C19.6115 13.6697 19.1751 13.8499 18.6653 13.8499Z" fill="#00A9DF"/>
</g>
</svg>
