<svg width="25" height="24" viewBox="0 0 25 24" fill="none" xmlns="http://www.w3.org/2000/svg">
<g id="sports_motorsports">
<mask id="mask0_115_4542" style="mask-type:alpha" maskUnits="userSpaceOnUse" x="0" y="0" width="25" height="24">
<rect id="Bounding box" x="0.5" width="24" height="24" fill="#D9D9D9"/>
</mask>
<g mask="url(#mask0_115_4542)">
<path id="sports_motorsports_2" d="M14.5 18C16.1667 18 17.5833 17.4167 18.75 16.25C19.9167 15.0833 20.5 13.6667 20.5 12C20.5 10.3167 19.8875 8.89583 18.6625 7.7375C17.4375 6.57917 15.9667 6 14.25 6C13.2833 6 12.3769 6.11731 11.5308 6.35193C10.6846 6.58654 9.87308 6.93847 9.09615 7.4077L12.0577 8.56153C12.6385 8.80641 13.1074 9.18622 13.4644 9.70095C13.8215 10.2157 14 10.7821 14 11.4C14 12.2718 13.7022 13.0064 13.1067 13.6039C12.5112 14.2013 11.7923 14.5 10.95 14.5H4.70385C4.63205 14.8487 4.58013 15.242 4.54808 15.6798C4.51603 16.1176 4.5 16.6859 4.5 17.3846C4.5 17.5385 4.5641 17.6795 4.6923 17.8077C4.82052 17.9359 4.96154 18 5.11538 18H14.5ZM4.86155 13.5H10.9C11.491 13.5 11.9888 13.2978 12.3933 12.8933C12.7978 12.4888 13 11.991 13 11.4C13 10.9808 12.8837 10.6003 12.651 10.2587C12.4183 9.91698 12.0987 9.66026 11.6923 9.48848L8.14615 8.06537C7.34358 8.74616 6.66442 9.54552 6.10865 10.4635C5.55288 11.3814 5.13718 12.3936 4.86155 13.5ZM14.5 19H5.11538C4.65513 19 4.27083 18.8458 3.9625 18.5375C3.65417 18.2292 3.5 17.8449 3.5 17.3846V16.6346C3.5 14.9244 3.76346 13.3567 4.29038 11.9317C4.81731 10.5067 5.55545 9.28108 6.5048 8.2548C7.45417 7.22852 8.58782 6.42948 9.90577 5.85768C11.2237 5.28589 12.6718 5 14.25 5C15.2423 5 16.1776 5.18269 17.0558 5.54807C17.934 5.91346 18.7032 6.41058 19.3635 7.03943C20.0237 7.66828 20.5449 8.40834 20.9269 9.25963C21.309 10.1109 21.5 11.0243 21.5 12C21.5 12.959 21.3173 13.8651 20.9519 14.7183C20.5865 15.5715 20.0862 16.3157 19.451 16.951C18.8157 17.5862 18.0747 18.0865 17.2279 18.4519C16.3811 18.8173 15.4718 19 14.5 19Z" fill="#00A9DF"/>
</g>
</g>
</svg>
