<svg width="41" height="40" viewBox="0 0 41 40" fill="none" xmlns="http://www.w3.org/2000/svg">
<mask id="mask0_115_4542" style="mask-type:alpha" maskUnits="userSpaceOnUse" x="0" y="0" width="41" height="40">
<rect x="0.5" width="40" height="40" fill="#D9D9D9"/>
</mask>
<g mask="url(#mask0_115_4542)">
<path d="M23.8333 30.0002C26.6111 30.0002 28.9722 29.0279 30.9167 27.0835C32.8611 25.1391 33.8333 22.7779 33.8333 20.0002C33.8333 17.1946 32.8125 14.8266 30.7708 12.896C28.7292 10.9654 26.2778 10.0002 23.4167 10.0002C21.8056 10.0002 20.2949 10.1957 18.8846 10.5867C17.4744 10.9777 16.1218 11.5643 14.8269 12.3463L19.7628 14.2694C20.7308 14.6775 21.5123 15.3105 22.1074 16.1684C22.7025 17.0263 23 17.9702 23 19.0002C23 20.4532 22.5037 21.6775 21.5112 22.6732C20.5187 23.669 19.3205 24.1668 17.9167 24.1668H7.50642C7.38675 24.748 7.30021 25.4035 7.24679 26.1332C7.19338 26.8629 7.16667 27.81 7.16667 28.9745C7.16667 29.2309 7.2735 29.466 7.48717 29.6797C7.70086 29.8933 7.9359 30.0002 8.19229 30.0002H23.8333ZM7.76925 22.5002H17.8333C18.8184 22.5002 19.648 22.1631 20.3221 21.489C20.9963 20.8148 21.3333 19.9852 21.3333 19.0002C21.3333 18.3014 21.1394 17.6674 20.7516 17.0979C20.3638 16.5285 19.8312 16.1006 19.1538 15.8143L13.2436 13.4425C11.906 14.5771 10.774 15.9094 9.84775 17.4392C8.92147 18.9692 8.22864 20.6561 7.76925 22.5002ZM23.8333 31.6668H8.19229C7.42521 31.6668 6.78472 31.4099 6.27083 30.896C5.75694 30.3821 5.5 29.7416 5.5 28.9745V27.7245C5.5 24.8741 5.9391 22.2614 6.81729 19.8864C7.69551 17.5114 8.92575 15.4686 10.508 13.7582C12.0903 12.0477 13.9797 10.716 16.1763 9.76295C18.3729 8.80998 20.7863 8.3335 23.4167 8.3335C25.0705 8.3335 26.6293 8.63798 28.093 9.24695C29.5566 9.85593 30.8387 10.6845 31.9391 11.7325C33.0395 12.7806 33.9081 14.0141 34.5449 15.4329C35.1816 16.8517 35.5 18.3741 35.5 20.0002C35.5 21.5985 35.1955 23.1086 34.5865 24.5306C33.9776 25.9526 33.1437 27.193 32.085 28.2518C31.0262 29.3105 29.7911 30.1444 28.3798 30.7534C26.9685 31.3623 25.453 31.6668 23.8333 31.6668Z" fill="#00A9DF"/>
</g>
</svg>
