<?xml version="1.0" encoding="utf-8"?>
<!-- Generator: Adobe Illustrator 25.0.1, SVG Export Plug-In . SVG Version: 6.00 Build 0)  -->
<svg version="1.1" id="Layer_1" xmlns="http://www.w3.org/2000/svg" xmlns:xlink="http://www.w3.org/1999/xlink" x="0px" y="0px"
	 viewBox="0 0 24 24" style="enable-background:new 0 0 24 24;" xml:space="preserve">
<style type="text/css">
	.st0{fill:#D9D9D9;filter:url(#Adobe_OpacityMaskFilter);}
	.st1{display:none;mask:url(#mask0_278_2768_1_);}
	.st2{display:inline;fill:#00A9DF;}
	.st3{fill:#D9D9D9;filter:url(#Adobe_OpacityMaskFilter_1_);}
	.st4{mask:url(#mask0_278_2768_2_);}
	.st5{fill:#00A9DF;}
</style>
<defs>
	<filter id="Adobe_OpacityMaskFilter" filterUnits="userSpaceOnUse" x="4.5" y="2.5" width="15" height="19.2">
		<feColorMatrix  type="matrix" values="1 0 0 0 0  0 1 0 0 0  0 0 1 0 0  0 0 0 1 0"/>
	</filter>
</defs>
<mask maskUnits="userSpaceOnUse" x="4.5" y="2.5" width="15" height="19.2" id="mask0_278_2768_1_">
	<rect class="st0" width="24" height="24"/>
</mask>
<g class="st1">
	<path class="st2" d="M12,21.7c-0.5,0-0.9-0.2-1.3-0.5c-0.4-0.4-0.5-0.8-0.5-1.3h3.6c0,0.5-0.2,0.9-0.5,1.3
		C12.9,21.5,12.5,21.7,12,21.7z M4.5,18.9v-1.5h1.8V9.9c0-1.3,0.4-2.5,1.2-3.6c0.8-1,1.9-1.7,3.2-2V3.8c0-0.3,0.1-0.6,0.4-0.9
		c0.2-0.2,0.5-0.4,0.9-0.4c0.3,0,0.6,0.1,0.9,0.4c0.2,0.2,0.4,0.5,0.4,0.9V4c-0.2,0.4-0.4,0.8-0.5,1.2c-0.1,0.4-0.2,0.9-0.2,1.3
		C12.5,7.8,13,9,14,9.9c1,1,2.1,1.4,3.5,1.5h0.1c0,0,0.1,0,0.1,0v6h1.8v1.5H4.5z"/>
</g>
<defs>
	<filter id="Adobe_OpacityMaskFilter_1_" filterUnits="userSpaceOnUse" x="4.5" y="2.5" width="15" height="19.2">
		<feColorMatrix  type="matrix" values="1 0 0 0 0  0 1 0 0 0  0 0 1 0 0  0 0 0 1 0"/>
	</filter>
</defs>
<mask maskUnits="userSpaceOnUse" x="4.5" y="2.5" width="15" height="19.2" id="mask0_278_2768_2_">
	<rect class="st3" width="24" height="24"/>
</mask>
<g class="st4">
	<g>
		<path class="st5" d="M10.7,21.2c0.4,0.4,0.8,0.5,1.3,0.5c0.5,0,0.9-0.2,1.3-0.5c0.4-0.4,0.5-0.8,0.5-1.3h-3.6
			C10.2,20.4,10.4,20.8,10.7,21.2z"/>
		<path class="st5" d="M17.7,17.4V9.9c0-1.3-0.4-2.5-1.2-3.6c-0.8-1-1.9-1.7-3.2-2V3.8c0-0.3-0.1-0.6-0.4-0.9
			c-0.2-0.2-0.5-0.4-0.9-0.4c-0.3,0-0.6,0.1-0.9,0.4c-0.2,0.2-0.4,0.5-0.4,0.9V4c0.1,0.1,0.2,0.3,0.2,0.5c0,0,0,0,0,0
			c-0.2,0-0.4,0.1-0.6,0.2c0,0,0,0,0,0c-0.6,0.1-1,0.3-1.5,0.6C8.4,5.5,8.1,5.8,7.7,6.2l0,0C7.6,6.4,7.5,6.5,7.4,6.6c0,0,0,0,0,0
			l0,0c0,0,0,0,0,0C7.3,6.7,7.3,6.8,7.2,6.9c0,0,0,0,0,0c0,0,0,0,0,0c0,0,0,0,0,0c0,0,0,0,0,0c0,0,0,0,0,0C7.1,7.2,6.9,7.5,6.8,7.8
			C6.5,8.5,6.3,9.2,6.3,9.9c0,0.5,0,0.9,0,1.4c0,0.2,0,0.4,0,0.5v5.6H4.5v1.5h15v-1.5H17.7z"/>
	</g>
</g>
</svg>
