<svg width="24" height="24" viewBox="0 0 24 24" fill="none" xmlns="http://www.w3.org/2000/svg">
<g id="shopping_cart_checkout">
<mask id="mask0_40_5269" style="mask-type:alpha" maskUnits="userSpaceOnUse" x="0" y="0" width="24" height="24">
<rect id="Bounding box" width="24" height="24" fill="#D9D9D9"/>
</mask>
<g mask="url(#mask0_40_5269)">
<path id="shopping_cart_checkout_2" d="M12 9.28848L11.3115 8.6L13.4057 6.5H8.5V5.5H13.4057L11.3058 3.4L12 2.71152L15.2885 6L12 9.28848ZM7.3077 21.1154C6.8859 21.1154 6.53045 20.9708 6.24135 20.6817C5.95223 20.3926 5.80768 20.0372 5.80768 19.6154C5.80768 19.1936 5.95223 18.8382 6.24135 18.5491C6.53045 18.2599 6.8859 18.1154 7.3077 18.1154C7.72948 18.1154 8.08493 18.2599 8.37405 18.5491C8.66315 18.8382 8.8077 19.1936 8.8077 19.6154C8.8077 20.0372 8.66315 20.3926 8.37405 20.6817C8.08493 20.9708 7.72948 21.1154 7.3077 21.1154ZM16.6923 21.1154C16.2705 21.1154 15.9151 20.9708 15.626 20.6817C15.3369 20.3926 15.1923 20.0372 15.1923 19.6154C15.1923 19.1936 15.3369 18.8382 15.626 18.5491C15.9151 18.2599 16.2705 18.1154 16.6923 18.1154C17.1141 18.1154 17.4696 18.2599 17.7587 18.5491C18.0478 18.8382 18.1923 19.1936 18.1923 19.6154C18.1923 20.0372 18.0478 20.3926 17.7587 20.6817C17.4696 20.9708 17.1141 21.1154 16.6923 21.1154ZM2 3.5V2.5H4.44808L8.54423 11.1154H15.1789C15.2942 11.1154 15.3968 11.0865 15.4865 11.0289C15.5763 10.9712 15.6532 10.891 15.7173 10.7885L19.2135 4.5H20.3538L16.5692 11.3346C16.4244 11.5782 16.2362 11.7692 16.0048 11.9077C15.7734 12.0462 15.5192 12.1154 15.2423 12.1154H8.1L6.88463 14.3462C6.78206 14.5 6.77885 14.6667 6.875 14.8462C6.97115 15.0256 7.11538 15.1154 7.3077 15.1154H18.1923V16.1154H7.3077C6.72437 16.1154 6.28814 15.8705 5.99903 15.3808C5.70993 14.891 5.70384 14.3962 5.98078 13.8962L7.4846 11.2154L3.80768 3.5H2Z" fill="#959699"/>
</g>
</g>
</svg>
