<svg width="20" height="20" viewBox="0 0 20 20" fill="none" xmlns="http://www.w3.org/2000/svg">
<g id="payments">
<mask id="mask0_114_4057" style="mask-type:alpha" maskUnits="userSpaceOnUse" x="0" y="0" width="20" height="20">
<rect id="Bounding box" width="20" height="20" fill="#D9D9D9"/>
</mask>
<g mask="url(#mask0_114_4057)">
<path id="payments_2" d="M2.79497 15.9646C2.25987 15.9646 1.81253 15.7848 1.45295 15.4252C1.09337 15.0657 0.913574 14.6183 0.913574 14.0832V5.83009H2.53853V14.0832C2.53853 14.1473 2.56525 14.2061 2.61868 14.2595C2.6721 14.3129 2.73086 14.3397 2.79497 14.3397H16.5192V15.9646H2.79497ZM5.4616 13.3397C4.92651 13.3397 4.47917 13.1599 4.11957 12.8003C3.75999 12.4407 3.5802 11.9934 3.5802 11.4583V5.68584C3.5802 5.16048 3.75999 4.71557 4.11957 4.35111C4.47917 3.98667 4.92651 3.80444 5.4616 3.80444H17.2051C17.7305 3.80444 18.1754 3.98667 18.5399 4.35111C18.9043 4.71557 19.0865 5.16048 19.0865 5.68584V11.4583C19.0865 11.9934 18.9043 12.4407 18.5399 12.8003C18.1754 13.1599 17.7305 13.3397 17.2051 13.3397H5.4616ZM6.79491 11.7147C6.79491 11.2859 6.63682 10.9137 6.32064 10.5982C6.00444 10.2827 5.63262 10.1249 5.20518 10.1249V11.4583C5.20518 11.5277 5.23055 11.5878 5.2813 11.6385C5.33205 11.6893 5.39215 11.7147 5.4616 11.7147H6.79491ZM15.8718 11.7147H17.2051C17.2746 11.7147 17.3347 11.6893 17.3855 11.6385C17.4362 11.5878 17.4616 11.5277 17.4616 11.4583V10.1249C17.0182 10.1249 16.6424 10.283 16.3342 10.5992C16.026 10.9154 15.8718 11.2872 15.8718 11.7147ZM11.3168 10.6554C11.9101 10.6554 12.4049 10.4552 12.8013 10.0547C13.1977 9.65432 13.3958 9.15662 13.3958 8.56163C13.3958 7.97821 13.1962 7.48688 12.7969 7.08763C12.3977 6.68838 11.9098 6.48876 11.3334 6.48876C10.7314 6.48876 10.2303 6.68694 9.82985 7.0833C9.42944 7.47966 9.22924 7.97101 9.22924 8.55734C9.22924 9.15757 9.42885 9.6573 9.82807 10.0565C10.2273 10.4557 10.7235 10.6554 11.3168 10.6554ZM5.20518 7.01915C5.63397 7.01915 6.00612 6.86349 6.32164 6.55217C6.63715 6.24084 6.79491 5.86659 6.79491 5.42942H5.4616C5.39215 5.42942 5.33205 5.4548 5.2813 5.50555C5.23055 5.5563 5.20518 5.61639 5.20518 5.68584V7.01915ZM17.4616 7.01915V5.68584C17.4616 5.61639 17.4362 5.5563 17.3855 5.50555C17.3347 5.4548 17.2746 5.42942 17.2051 5.42942H15.8718C15.8718 5.8728 16.0275 6.2486 16.3388 6.55682C16.6501 6.86504 17.0244 7.01915 17.4616 7.01915Z" fill="#00A9DF"/>
</g>
</g>
</svg>
