<svg width="21" height="20" viewBox="0 0 21 20" fill="none" xmlns="http://www.w3.org/2000/svg">
<g id="calendar_clock">
<mask id="mask0_120_5832" style="mask-type:alpha" maskUnits="userSpaceOnUse" x="0" y="0" width="21" height="20">
<rect id="Bounding box" x="0.5" width="20" height="20" fill="#D9D9D9"/>
</mask>
<g mask="url(#mask0_120_5832)">
<path id="calendar_clock_2" d="M4.87499 7.88791H16.125V5.84624C16.125 5.71804 16.0716 5.60052 15.9647 5.49368C15.8579 5.38684 15.7404 5.33343 15.6122 5.33343H5.3878C5.25961 5.33343 5.14209 5.38684 5.03524 5.49368C4.92841 5.60052 4.87499 5.71804 4.87499 5.84624V7.88791ZM5.3878 17.7918C4.90114 17.7918 4.49261 17.6266 4.16222 17.2962C3.83184 16.9658 3.66666 16.5573 3.66666 16.0706V5.84624C3.66666 5.36929 3.83427 4.9632 4.16951 4.62795C4.50476 4.29271 4.91086 4.12509 5.3878 4.12509H6.86216V2.01611H8.13459V4.12509H12.9295V2.01611H14.1378V4.12509H15.6122C16.0891 4.12509 16.4952 4.29271 16.8305 4.62795C17.1657 4.9632 17.3333 5.36929 17.3333 5.84624V9.36868C17.1421 9.31847 16.9455 9.29844 16.7437 9.30859C16.5419 9.31873 16.3356 9.33449 16.125 9.35586V9.09624H4.87499V16.0706C4.87499 16.1988 4.92841 16.3163 5.03524 16.4232C5.14209 16.53 5.25961 16.5834 5.3878 16.5834H11.1827C11.2126 16.8089 11.2858 17.0196 11.4022 17.2156C11.5187 17.4117 11.6346 17.6037 11.75 17.7918H5.3878ZM16.5241 18.7501C15.4791 18.7501 14.5936 18.3856 13.8677 17.6565C13.1418 16.9274 12.7788 16.0404 12.7788 14.9954C12.7788 13.9504 13.1434 13.0649 13.8724 12.339C14.6015 11.6131 15.4886 11.2501 16.5336 11.2501C17.5786 11.2501 18.464 11.6146 19.1899 12.3437C19.9159 13.0728 20.2788 13.9598 20.2788 15.0048C20.2788 16.0498 19.9143 16.9353 19.1852 17.6612C18.4562 18.3871 17.5691 18.7501 16.5241 18.7501ZM17.6378 16.8142L18.3013 16.1507L16.9743 14.8238V12.5962H16.0417V15.2181L17.6378 16.8142Z" fill="#00A9DF"/>
</g>
</g>
</svg>
