<svg width="24" height="24" viewBox="0 0 24 24" fill="none" xmlns="http://www.w3.org/2000/svg">
<g id="person_pin_circle">
<mask id="mask0_40_5245" style="mask-type:alpha" maskUnits="userSpaceOnUse" x="0" y="0" width="24" height="24">
<rect id="Bounding box" width="24" height="24" fill="#D9D9D9"/>
</mask>
<g mask="url(#mask0_40_5245)">
<path id="person_pin_circle_2" d="M12 14.5C12.7539 14.5 13.4449 14.3285 14.0731 13.9856C14.7013 13.6426 15.2192 13.1859 15.6269 12.6154C15.1077 12.2474 14.5423 11.9695 13.9308 11.7817C13.3192 11.5939 12.6757 11.5 12 11.5C11.3244 11.5 10.6808 11.5939 10.0692 11.7817C9.4577 11.9695 8.89231 12.2474 8.37308 12.6154C8.78076 13.1859 9.29871 13.6426 9.92693 13.9856C10.5551 14.3285 11.2462 14.5 12 14.5ZM12 9.5C12.4218 9.5 12.7773 9.35545 13.0664 9.06635C13.3555 8.77725 13.5 8.4218 13.5 8C13.5 7.5782 13.3555 7.22275 13.0664 6.93365C12.7773 6.64455 12.4218 6.5 12 6.5C11.5782 6.5 11.2228 6.64455 10.9337 6.93365C10.6446 7.22275 10.5 7.5782 10.5 8C10.5 8.4218 10.6446 8.77725 10.9337 9.06635C11.2228 9.35545 11.5782 9.5 12 9.5ZM12 19.6769C13.8795 18.041 15.3654 16.3772 16.4577 14.6856C17.55 12.9939 18.0962 11.5308 18.0962 10.2962C18.0962 8.46667 17.517 6.95673 16.3587 5.76635C15.2003 4.57597 13.7474 3.98078 12 3.98078C10.2526 3.98078 8.79969 4.57597 7.64135 5.76635C6.48302 6.95673 5.90385 8.46667 5.90385 10.2962C5.90385 11.5308 6.45 12.9939 7.5423 14.6856C8.63462 16.3772 10.1205 18.041 12 19.6769ZM12 21.0192C9.65 18.941 7.87981 17.0029 6.68943 15.2048C5.49905 13.4067 4.90385 11.7705 4.90385 10.2962C4.90385 8.18077 5.59264 6.43589 6.9702 5.06153C8.34775 3.68718 10.0244 3 12 3C13.9757 3 15.6523 3.68718 17.0298 5.06153C18.4074 6.43589 19.0962 8.18077 19.0962 10.2962C19.0962 11.7705 18.501 13.4067 17.3106 15.2048C16.1202 17.0029 14.35 18.941 12 21.0192Z" fill="#959699"/>
</g>
</g>
</svg>
