<svg width="14" height="20" viewBox="0 0 14 20" fill="none" xmlns="http://www.w3.org/2000/svg">
<path d="M2.37343 19.1153C1.94073 19.1153 1.57215 18.9691 1.26767 18.6768C0.963192 18.3845 0.810952 18.0307 0.810952 17.6153V13.3153C0.810952 12.082 1.00994 10.88 1.40791 9.70951C1.80587 8.53899 2.43555 7.37746 3.29694 6.22491L2.90629 6.26336C2.31336 6.19029 1.80922 5.93037 1.39387 5.48358C0.978539 5.03678 0.770874 4.51852 0.770874 3.92878V2.90763C0.770874 2.23585 1.06935 1.6756 1.66632 1.22688C2.26326 0.778167 2.8956 0.585858 3.56332 0.649958L12.4535 1.47688C12.7086 1.50382 12.9086 1.60189 13.0535 1.77111C13.1984 1.94034 13.2708 2.13714 13.2708 2.36151V4.63453C13.2708 4.85888 13.1897 5.05727 13.0274 5.22971C12.8652 5.40214 12.6672 5.50182 12.4335 5.52873L11.5561 5.61913C11.7858 6.39092 12.0836 7.08578 12.4495 7.70373C12.8154 8.32168 13.2561 8.78194 13.7716 9.08451L12.9904 10.3922C12.2105 9.92677 11.5921 9.28319 11.1354 8.46141C10.6787 7.63962 10.3195 6.73451 10.0577 5.74606L8.23074 5.91336C8.34291 6.78516 8.60099 7.66048 9.00499 8.53933C9.40896 9.41818 9.85735 10.2602 10.3501 11.0653C10.6493 11.5602 10.8703 12.0784 11.0132 12.6201C11.1561 13.1618 11.2275 13.7102 11.2275 14.2653V17.6153C11.2275 18.0307 11.0753 18.3845 10.7708 18.6768C10.4663 18.9691 10.0978 19.1153 9.66509 19.1153H2.37343ZM2.33335 3.09993V3.89031C2.33335 4.19031 2.4462 4.43197 2.67189 4.61531C2.89758 4.79864 3.16668 4.87364 3.47918 4.84031L11.7083 4.09031V2.89993L3.47918 2.14993C3.16668 2.1166 2.89758 2.1916 2.67189 2.37493C2.4462 2.55827 2.33335 2.79993 2.33335 3.09993ZM2.37343 17.6153H9.66509V14.2653C9.66509 13.8191 9.61034 13.3925 9.50082 12.9855C9.39131 12.5784 9.22037 12.1832 8.98801 11.7999C8.35633 10.7653 7.8425 9.78162 7.44653 8.84893C7.05055 7.91625 6.79113 6.98837 6.66827 6.06528L5.27606 6.18066L4.50884 7.16528C3.82106 8.05503 3.29322 9.02748 2.9253 10.0826C2.55738 11.1377 2.37343 12.2153 2.37343 13.3153V17.6153Z" fill="#002F6C"/>
</svg>
