<svg width="20" height="20" viewBox="0 0 20 20" fill="none" xmlns="http://www.w3.org/2000/svg">
<g id="schedule">
<mask id="mask0_106_2435" style="mask-type:alpha" maskUnits="userSpaceOnUse" x="0" y="0" width="20" height="20">
<rect id="Bounding box" width="20" height="20" fill="#D9D9D9"/>
</mask>
<g mask="url(#mask0_106_2435)">
<path id="schedule_2" d="M12.936 13.3975L13.71 12.6235L10.5417 9.455V5.00006H9.45842V9.91994L12.936 13.3975ZM10.0015 17.5834C8.95686 17.5834 7.97497 17.386 7.05579 16.9913C6.13661 16.5966 5.3311 16.0534 4.63925 15.3619C3.94739 14.6704 3.40401 13.8642 3.0091 12.9434C2.6142 12.0227 2.41675 11.0388 2.41675 9.99192C2.41675 8.945 2.61411 7.96065 3.00883 7.03887C3.40355 6.11708 3.94668 5.31374 4.63821 4.62883C5.32975 3.94392 6.13591 3.40401 7.05669 3.0091C7.97746 2.6142 8.9613 2.41675 10.0082 2.41675C11.0551 2.41675 12.0395 2.61578 12.9614 3.01383C13.8833 3.41189 14.6852 3.9521 15.3671 4.63446C16.049 5.31683 16.5889 6.11926 16.9867 7.04173C17.3845 7.96419 17.5834 8.94983 17.5834 9.99867C17.5834 11.0433 17.386 12.0252 16.9913 12.9443C16.5966 13.8635 16.0569 14.669 15.3723 15.3609C14.6877 16.0527 13.8838 16.5961 12.9607 16.991C12.0375 17.3859 11.0511 17.5834 10.0015 17.5834Z" fill="#002F6C"/>
</g>
</g>
</svg>
