<svg width="20" height="20" viewBox="0 0 20 20" fill="none" xmlns="http://www.w3.org/2000/svg">
<path d="M17.7673 19.2269L11.4365 12.8961C10.9365 13.2922 10.324 13.6028 9.59903 13.8278C8.87403 14.0528 8.15577 14.1653 7.44423 14.1653C5.5684 14.1653 3.98022 13.5152 2.67968 12.215C1.37915 10.9147 0.728882 9.32693 0.728882 7.45154C0.728882 5.57614 1.379 3.9878 2.67923 2.68652C3.97947 1.38525 5.56728 0.734619 7.44268 0.734619C9.31807 0.734619 10.9064 1.38489 12.2077 2.68542C13.509 3.98595 14.1596 5.57414 14.1596 7.44997C14.1596 8.18074 14.0522 8.88779 13.8375 9.57112C13.6227 10.2545 13.3154 10.8532 12.9154 11.3673L19.2711 17.723L17.7673 19.2269ZM7.44423 12.0154C8.7327 12.0154 9.81572 11.5766 10.6933 10.699C11.5708 9.82145 12.0096 8.73844 12.0096 7.44997C12.0096 6.1615 11.5708 5.07849 10.6933 4.20092C9.81572 3.32335 8.7327 2.88457 7.44423 2.88457C6.15577 2.88457 5.07275 3.32335 4.19518 4.20092C3.31763 5.07849 2.87886 6.1615 2.87886 7.44997C2.87886 8.73844 3.31763 9.82145 4.19518 10.699C5.07275 11.5766 6.15577 12.0154 7.44423 12.0154Z" fill="#00A9DF"/>
</svg>
