<svg width="16" height="17" viewBox="0 0 16 17" fill="none" xmlns="http://www.w3.org/2000/svg">
<path d="M4.80444 16.0148C4.36403 16.0148 3.98702 15.858 3.67339 15.5444C3.35977 15.2307 3.20296 14.8537 3.20296 14.4133C3.20296 13.9729 3.35977 13.5959 3.67339 13.2823C3.98702 12.9686 4.36403 12.8118 4.80444 12.8118C5.24485 12.8118 5.62186 12.9686 5.93548 13.2823C6.24911 13.5959 6.40592 13.9729 6.40592 14.4133C6.40592 14.8537 6.24911 15.2307 5.93548 15.5444C5.62186 15.858 5.24485 16.0148 4.80444 16.0148ZM12.8118 16.0148C12.3714 16.0148 11.9944 15.858 11.6808 15.5444C11.3672 15.2307 11.2104 14.8537 11.2104 14.4133C11.2104 13.9729 11.3672 13.5959 11.6808 13.2823C11.9944 12.9686 12.3714 12.8118 12.8118 12.8118C13.2522 12.8118 13.6293 12.9686 13.9429 13.2823C14.2565 13.5959 14.4133 13.9729 14.4133 14.4133C14.4133 14.8537 14.2565 15.2307 13.9429 15.5444C13.6293 15.858 13.2522 16.0148 12.8118 16.0148ZM3.36311 1.60148H15.174C15.481 1.60148 15.7145 1.73827 15.8747 2.01186C16.0348 2.28545 16.0415 2.56237 15.8947 2.84263L13.0521 7.96736C12.9053 8.23427 12.7084 8.44113 12.4615 8.58794C12.2146 8.73474 11.9444 8.80814 11.6508 8.80814H5.68525L4.80444 10.4096H14.4133V12.0111H4.80444C4.20388 12.0111 3.75013 11.7475 3.44318 11.2204C3.13623 10.6932 3.12289 10.1694 3.40314 9.64892L4.48414 7.6871L1.60148 1.60148H0V0H2.6024L3.36311 1.60148Z" fill="#002F6C"/>
</svg>
