<svg width="80" height="109" viewBox="0 0 80 109" fill="none" xmlns="http://www.w3.org/2000/svg">
<path d="M40.0679 108.871C40.0446 98.2639 35.8114 88.1 28.2983 80.6124C20.7853 73.1248 10.6071 68.9261 0 68.9388C10.6071 68.9516 20.7853 64.7529 28.2983 57.2653C35.8114 49.7777 40.0446 39.6137 40.0679 29.0067C40.0679 39.5974 44.275 49.7542 51.7638 57.2429C59.2525 64.7317 69.4093 68.9388 80 68.9388C69.4093 68.9388 59.2525 73.146 51.7638 80.6347C44.275 88.1234 40.0679 98.2803 40.0679 108.871Z" fill="#00A9DF"/>
<path d="M18.0973 36.0747C18.0888 31.2827 16.1776 26.6903 12.7839 23.3071C9.39027 19.9239 4.79195 18.027 0 18.0333C2.37237 18.0375 4.72235 17.5744 6.91573 16.6704C9.10912 15.7665 11.103 14.4393 12.7834 12.7647C14.4639 11.0902 15.7981 9.10104 16.7099 6.91086C17.6216 4.72068 18.0931 2.37237 18.0973 0C18.0962 2.36914 18.5622 4.71523 19.4686 6.90413C20.375 9.09303 21.7039 11.0818 23.3795 12.7566C25.0552 14.4315 27.0445 15.7597 29.2338 16.6651C31.4231 17.5705 33.7694 18.0354 36.1386 18.0333C33.7691 18.0323 31.4226 18.4982 29.2332 19.4045C27.0439 20.3108 25.0546 21.6397 23.3791 23.3152C21.7036 24.9907 20.3747 26.98 19.4684 29.1693C18.5621 31.3587 18.0962 33.7052 18.0973 36.0747Z" fill="#00A9DF"/>
</svg>
