<svg width="21" height="6" viewBox="0 0 21 6" fill="none" xmlns="http://www.w3.org/2000/svg">
<path d="M3.61135 5.61547C2.85526 5.61547 2.21179 5.36142 1.68094 4.85332C1.15008 4.34522 0.884659 3.72824 0.884659 3.00239C0.884659 2.27652 1.1493 1.65878 1.67859 1.14917C2.20786 0.639565 2.85054 0.384766 3.60664 0.384766C4.36275 0.384766 5.00622 0.638816 5.53706 1.14692C6.06791 1.65502 6.33333 2.27199 6.33333 2.99784C6.33333 3.72371 6.0687 4.34145 5.53943 4.85107C5.01015 5.36067 4.36746 5.61547 3.61135 5.61547ZM3.6083 4.11552C3.9373 4.11552 4.2133 4.00868 4.43633 3.79502C4.65935 3.58137 4.77086 3.31662 4.77086 3.00079C4.77086 2.68496 4.65958 2.41999 4.43703 2.20589C4.21448 1.99177 3.9387 1.88472 3.60971 1.88472C3.28072 1.88472 3.0047 1.99155 2.78166 2.20522C2.55864 2.41887 2.44713 2.68361 2.44713 2.99944C2.44713 3.31527 2.55841 3.58024 2.78096 3.79434C3.00353 4.00846 3.27931 4.11552 3.6083 4.11552ZM10.5024 5.61547C9.74626 5.61547 9.10278 5.36142 8.57193 4.85332C8.04109 4.34522 7.77567 3.72824 7.77567 3.00239C7.77567 2.27652 8.04031 1.65878 8.56958 1.14917C9.09885 0.639565 9.74153 0.384766 10.4976 0.384766C11.2537 0.384766 11.8972 0.638816 12.4281 1.14692C12.9589 1.65502 13.2243 2.27199 13.2243 2.99784C13.2243 3.72371 12.9597 4.34145 12.4304 4.85107C11.9011 5.36067 11.2585 5.61547 10.5024 5.61547ZM10.4993 4.11552C10.8283 4.11552 11.1043 4.00868 11.3273 3.79502C11.5504 3.58137 11.6619 3.31662 11.6619 3.00079C11.6619 2.68496 11.5506 2.41999 11.328 2.20589C11.1055 1.99177 10.8297 1.88472 10.5007 1.88472C10.1717 1.88472 9.8957 1.99155 9.67268 2.20522C9.44964 2.41887 9.33812 2.68361 9.33812 2.99944C9.33812 3.31527 9.44941 3.58024 9.67198 3.79434C9.89453 4.00846 10.1703 4.11552 10.4993 4.11552ZM17.3934 5.61547C16.6372 5.61547 15.9938 5.36142 15.4629 4.85332C14.9321 4.34522 14.6667 3.72824 14.6667 3.00239C14.6667 2.27652 14.9313 1.65878 15.4606 1.14917C15.9898 0.639565 16.6325 0.384766 17.3886 0.384766C18.1447 0.384766 18.7882 0.638816 19.3191 1.14692C19.8499 1.65502 20.1153 2.27199 20.1153 2.99784C20.1153 3.72371 19.8507 4.34145 19.3214 4.85107C18.7921 5.36067 18.1495 5.61547 17.3934 5.61547Z" fill="#002F6C"/>
</svg>
