<svg width="24" height="24" viewBox="0 0 24 24" fill="none" xmlns="http://www.w3.org/2000/svg">
<g id="directions_car">
<mask id="mask0_115_4527" style="mask-type:alpha" maskUnits="userSpaceOnUse" x="0" y="0" width="24" height="24">
<rect id="Bounding box" width="24" height="24" fill="#D9D9D9"/>
</mask>
<g mask="url(#mask0_115_4527)">
<path id="directions_car_2" d="M5.23078 18V19.5C5.23078 19.6417 5.18286 19.7604 5.08703 19.8562C4.99119 19.9521 4.87244 20 4.73078 20H4.5C4.35833 20 4.23958 19.9521 4.14375 19.8562C4.04792 19.7604 4 19.6417 4 19.5V12.1539L5.9846 6.5C6.03332 6.34102 6.12723 6.21794 6.26635 6.13078C6.40545 6.04359 6.56026 6 6.73077 6H17.3462C17.4975 6 17.635 6.04583 17.7585 6.1375C17.8819 6.22917 17.9676 6.35 18.0154 6.5L20 12.1539V19.5C20 19.6417 19.9521 19.7604 19.8562 19.8562C19.7604 19.9521 19.6417 20 19.5 20H19.2692C19.1276 20 19.0088 19.9521 18.913 19.8562C18.8171 19.7604 18.7692 19.6417 18.7692 19.5V18H5.23078ZM5.41538 11.1539H18.5846L17.1115 7H6.88845L5.41538 11.1539ZM7.4276 15.6923C7.73868 15.6923 8.0016 15.5834 8.21635 15.3657C8.4311 15.1479 8.53848 14.8835 8.53848 14.5724C8.53848 14.2613 8.42959 13.9984 8.21182 13.7837C7.99406 13.5689 7.72963 13.4615 7.41855 13.4615C7.10747 13.4615 6.84455 13.5704 6.6298 13.7882C6.41507 14.0059 6.3077 14.2704 6.3077 14.5815C6.3077 14.8925 6.41657 15.1554 6.63432 15.3702C6.85209 15.5849 7.11652 15.6923 7.4276 15.6923ZM16.5815 15.6923C16.8925 15.6923 17.1554 15.5834 17.3702 15.3657C17.5849 15.1479 17.6923 14.8835 17.6923 14.5724C17.6923 14.2613 17.5834 13.9984 17.3657 13.7837C17.1479 13.5689 16.8835 13.4615 16.5724 13.4615C16.2613 13.4615 15.9984 13.5704 15.7837 13.7882C15.5689 14.0059 15.4615 14.2704 15.4615 14.5815C15.4615 14.8925 15.5704 15.1554 15.7882 15.3702C16.0059 15.5849 16.2704 15.6923 16.5815 15.6923ZM5 17H19V12.1539H5V17Z" fill="#00A9DF"/>
</g>
</g>
</svg>
