<svg width="25" height="24" viewBox="0 0 25 24" fill="none" xmlns="http://www.w3.org/2000/svg">
<g id="directions_car">
<mask id="mask0_115_4532" style="mask-type:alpha" maskUnits="userSpaceOnUse" x="0" y="0" width="25" height="24">
<rect id="Bounding box" x="0.5" width="24" height="24" fill="#D9D9D9"/>
</mask>
<g mask="url(#mask0_115_4532)">
<path id="directions_car_2" d="M5.73078 18V19.5C5.73078 19.6417 5.68286 19.7604 5.58703 19.8562C5.49119 19.9521 5.37244 20 5.23078 20H5C4.85833 20 4.73958 19.9521 4.64375 19.8562C4.54792 19.7604 4.5 19.6417 4.5 19.5V12.1539L6.4846 6.5C6.53332 6.34102 6.62723 6.21794 6.76635 6.13078C6.90545 6.04359 7.06026 6 7.23077 6H17.8462C17.9975 6 18.135 6.04583 18.2585 6.1375C18.3819 6.22917 18.4676 6.35 18.5154 6.5L20.5 12.1539V19.5C20.5 19.6417 20.4521 19.7604 20.3562 19.8562C20.2604 19.9521 20.1417 20 20 20H19.7692C19.6276 20 19.5088 19.9521 19.413 19.8562C19.3171 19.7604 19.2692 19.6417 19.2692 19.5V18H5.73078ZM5.91538 11.1539H19.0846L17.6115 7H7.38845L5.91538 11.1539ZM7.9276 15.6923C8.23868 15.6923 8.5016 15.5834 8.71635 15.3657C8.9311 15.1479 9.03848 14.8835 9.03848 14.5724C9.03848 14.2613 8.92959 13.9984 8.71182 13.7837C8.49406 13.5689 8.22963 13.4615 7.91855 13.4615C7.60747 13.4615 7.34455 13.5704 7.1298 13.7882C6.91507 14.0059 6.8077 14.2704 6.8077 14.5815C6.8077 14.8925 6.91657 15.1554 7.13432 15.3702C7.35209 15.5849 7.61652 15.6923 7.9276 15.6923ZM17.0815 15.6923C17.3925 15.6923 17.6554 15.5834 17.8702 15.3657C18.0849 15.1479 18.1923 14.8835 18.1923 14.5724C18.1923 14.2613 18.0834 13.9984 17.8657 13.7837C17.6479 13.5689 17.3835 13.4615 17.0724 13.4615C16.7613 13.4615 16.4984 13.5704 16.2837 13.7882C16.0689 14.0059 15.9615 14.2704 15.9615 14.5815C15.9615 14.8925 16.0704 15.1554 16.2882 15.3702C16.5059 15.5849 16.7704 15.6923 17.0815 15.6923ZM5.5 17H19.5V12.1539H5.5V17Z" fill="#959699"/>
</g>
</g>
</svg>
