<svg width="25" height="24" viewBox="0 0 25 24" fill="none" xmlns="http://www.w3.org/2000/svg">
<g id="airport_shuttle">
<mask id="mask0_115_4537" style="mask-type:alpha" maskUnits="userSpaceOnUse" x="0" y="0" width="25" height="24">
<rect id="Bounding box" x="0.5" width="24" height="24" fill="#D9D9D9"/>
</mask>
<g mask="url(#mask0_115_4537)">
<path id="airport_shuttle_2" d="M6.86538 17.1923C6.25641 17.1923 5.73878 16.9792 5.3125 16.5529C4.88622 16.1266 4.67308 15.609 4.67308 15H2.75V7C2.75 6.725 2.84792 6.48958 3.04375 6.29375C3.23958 6.09792 3.475 6 3.75 6H16.8269L22.25 11.1154V15H20.6346C20.6346 15.609 20.4215 16.1266 19.9952 16.5529C19.5689 16.9792 19.0513 17.1923 18.4423 17.1923C17.8333 17.1923 17.3157 16.9792 16.8894 16.5529C16.4631 16.1266 16.25 15.609 16.25 15H9.0577C9.0577 15.6026 8.84456 16.1186 8.41827 16.5481C7.99199 16.9776 7.47436 17.1923 6.86538 17.1923ZM14.75 10.5769H20.2115L16.4038 7H14.75V10.5769ZM9.25 10.5769H13.75V7H9.25V10.5769ZM3.75 10.5769H8.25V7H3.75V10.5769ZM6.86538 16.25C7.21537 16.25 7.51121 16.1292 7.75287 15.8875C7.99454 15.6458 8.11538 15.35 8.11538 15C8.11538 14.65 7.99454 14.3542 7.75287 14.1125C7.51121 13.8708 7.21537 13.75 6.86538 13.75C6.51538 13.75 6.21954 13.8708 5.97788 14.1125C5.73621 14.3542 5.61538 14.65 5.61538 15C5.61538 15.35 5.73621 15.6458 5.97788 15.8875C6.21954 16.1292 6.51538 16.25 6.86538 16.25ZM18.4423 16.25C18.7923 16.25 19.0881 16.1292 19.3298 15.8875C19.5715 15.6458 19.6923 15.35 19.6923 15C19.6923 14.65 19.5715 14.3542 19.3298 14.1125C19.0881 13.8708 18.7923 13.75 18.4423 13.75C18.0923 13.75 17.7965 13.8708 17.5548 14.1125C17.3131 14.3542 17.1923 14.65 17.1923 15C17.1923 15.35 17.3131 15.6458 17.5548 15.8875C17.7965 16.1292 18.0923 16.25 18.4423 16.25ZM3.75 14H4.9346C5.07692 13.7 5.32179 13.4263 5.66922 13.1788C6.01666 12.9314 6.41537 12.8077 6.86538 12.8077C7.31537 12.8077 7.70448 12.9218 8.0327 13.15C8.3609 13.3782 8.61538 13.6615 8.79615 14H16.5115C16.6538 13.7 16.8987 13.4263 17.2462 13.1788C17.5936 12.9314 17.9923 12.8077 18.4423 12.8077C18.8923 12.8077 19.2814 12.9218 19.6096 13.15C19.9378 13.3782 20.1923 13.6615 20.3731 14H21.25V11.5769H3.75V14Z" fill="#959699"/>
</g>
</g>
</svg>
