<svg width="40" height="40" viewBox="0 0 40 40" fill="none" xmlns="http://www.w3.org/2000/svg">
<g id="directions_car">
<mask id="mask0_120_5340" style="mask-type:alpha" maskUnits="userSpaceOnUse" x="0" y="0" width="40" height="40">
<rect id="Bounding box" width="40" height="40" fill="#D9D9D9"/>
</mask>
<g mask="url(#mask0_120_5340)">
<path id="directions_car_2" d="M8.26063 30.3421V32.9062C8.26063 33.1375 8.17296 33.3313 7.99763 33.4877C7.82229 33.6442 7.61418 33.7224 7.37329 33.7224H7.10004C6.85918 33.7224 6.65265 33.6442 6.48046 33.4877C6.30827 33.3313 6.22217 33.1375 6.22217 32.9062V20.2743L9.64738 10.4275C9.72365 10.1952 9.87936 10.0011 10.1145 9.84516C10.3496 9.68927 10.6078 9.61133 10.8888 9.61133H29.2393C29.5035 9.61133 29.7365 9.68893 29.9384 9.84412C30.1402 9.99932 30.2783 10.1938 30.3525 10.4275L33.7778 20.2743V32.9062C33.7778 33.1375 33.6901 33.3313 33.5148 33.4877C33.3394 33.6442 33.1313 33.7224 32.8904 33.7224H32.6108C32.3592 33.7224 32.1511 33.6442 31.9863 33.4877C31.8216 33.3313 31.7393 33.1375 31.7393 32.9062V30.3421H8.26063ZM8.59184 18.5942H31.4081L28.8397 11.2993H11.1602L8.59184 18.5942ZM12.1243 26.3464C12.6454 26.3464 13.0933 26.155 13.4679 25.7722C13.8426 25.3895 14.0299 24.9451 14.0299 24.4392C14.0299 23.9025 13.8385 23.4508 13.4558 23.0842C13.073 22.7177 12.6309 22.5344 12.1297 22.5344C11.5975 22.5344 11.1459 22.7196 10.7747 23.0899C10.4035 23.4602 10.2179 23.9082 10.2179 24.4339C10.2179 24.9596 10.4054 25.4097 10.7803 25.7844C11.1552 26.1591 11.6033 26.3464 12.1243 26.3464ZM27.8918 26.3464C28.4197 26.3464 28.8678 26.155 29.236 25.7722C29.6043 25.3895 29.7884 24.9451 29.7884 24.4392C29.7884 23.9025 29.6024 23.4508 29.2304 23.0842C28.8584 22.7177 28.414 22.5344 27.8971 22.5344C27.3802 22.5344 26.9309 22.7196 26.5491 23.0899C26.1673 23.4602 25.9765 23.9082 25.9765 24.4339C25.9765 24.9596 26.1714 25.4097 26.5613 25.7844C26.9512 26.1591 27.3946 26.3464 27.8918 26.3464ZM7.91021 28.654H32.0897V20.2822H7.91021V28.654Z" fill="#959699"/>
</g>
</g>
</svg>
