<svg width="40" height="40" viewBox="0 0 40 40" fill="none" xmlns="http://www.w3.org/2000/svg">
<g id="airport_shuttle">
<mask id="mask0_120_5343" style="mask-type:alpha" maskUnits="userSpaceOnUse" x="0" y="0" width="40" height="40">
<rect id="Bounding box" width="40" height="40" fill="#D9D9D9"/>
</mask>
<g mask="url(#mask0_120_5343)">
<path id="airport_shuttle_2" d="M10.393 29.0426C9.34754 29.0426 8.46398 28.6829 7.74229 27.9634C7.02062 27.2439 6.65979 26.3544 6.65979 25.2948H3.34729V11.2605C3.34729 10.7368 3.52339 10.3032 3.87558 9.95963C4.22778 9.6161 4.65708 9.44434 5.1635 9.44434H27.4456L36.6806 18.2221V25.3059H33.8216C33.8216 26.3519 33.4553 27.2362 32.7225 27.9588C31.9898 28.6813 31.1007 29.0426 30.0553 29.0426C29.0099 29.0426 28.127 28.6829 27.4066 27.9634C26.6861 27.2439 26.3259 26.3544 26.3259 25.2948H14.1592C14.1592 26.3418 13.7929 27.2282 13.0602 27.954C12.3274 28.6797 11.4384 29.0426 10.393 29.0426ZM23.8472 17.2948H33.1592L26.6678 11.1323H23.8472V17.2948ZM14.608 17.2948H22.1592V11.1323H14.608V17.2948ZM5.03529 17.2948H12.9199V11.1323H5.03529V17.2948ZM10.4065 27.5063C11.0059 27.5063 11.5251 27.293 11.9642 26.8663C12.4034 26.4397 12.6229 25.9175 12.6229 25.2996C12.6229 24.6817 12.405 24.1578 11.9691 23.728C11.5332 23.2981 11.0155 23.0832 10.4162 23.0832C9.79828 23.0832 9.27442 23.2965 8.84458 23.7232C8.41475 24.1498 8.19983 24.6721 8.19983 25.29C8.19983 25.9078 8.41314 26.4317 8.83975 26.8615C9.26639 27.2914 9.78865 27.5063 10.4065 27.5063ZM30.069 27.5063C30.6683 27.5063 31.1876 27.293 31.6267 26.8663C32.0658 26.4397 32.2853 25.9175 32.2853 25.2996C32.2853 24.6817 32.0673 24.1578 31.6315 23.728C31.1956 23.2981 30.6779 23.0832 30.0786 23.0832C29.4607 23.0832 28.9368 23.2965 28.507 23.7232C28.0771 24.1498 27.8622 24.6721 27.8622 25.29C27.8622 25.9078 28.0755 26.4317 28.5022 26.8615C28.9288 27.2914 29.4511 27.5063 30.069 27.5063ZM5.03529 23.6067H7.02887C7.27532 23.0298 7.71935 22.5423 8.36096 22.1441C9.00257 21.746 9.68187 21.5469 10.3989 21.5469C11.1159 21.5469 11.7787 21.73 12.3873 22.096C12.9959 22.4621 13.4729 22.9657 13.8182 23.6067H26.6992C26.9404 23.044 27.3818 22.5601 28.0234 22.1548C28.665 21.7495 29.3443 21.5469 30.0613 21.5469C30.7783 21.5469 31.4411 21.7335 32.0497 22.1067C32.6583 22.4799 33.1343 22.9799 33.4776 23.6067H34.9926V18.9828H5.03529V23.6067Z" fill="#959699"/>
</g>
</g>
</svg>
