<svg width="23" height="16" viewBox="0 0 23 16" fill="none" xmlns="http://www.w3.org/2000/svg">
<path d="M0.362213 12.6923V9.69238H9.88552L2.0649 3.77308V6.94233H0.502448V1.44238H1.22357L13.2629 7.81931V0.692383H17.7099L22.6378 6.36543V12.6923H20.1739C20.2874 13.4744 20.0704 14.1699 19.5228 14.7789C18.9753 15.3878 18.2775 15.6923 17.4295 15.6923C16.5815 15.6923 15.8837 15.3878 15.3362 14.7789C14.7886 14.1699 14.5716 13.4744 14.6851 12.6923H8.19469C8.30821 13.4744 8.09121 14.1699 7.54367 14.7789C6.99614 15.3878 6.29836 15.6923 5.45034 15.6923C4.60232 15.6923 3.90454 15.3878 3.35701 14.7789C2.80945 14.1699 2.59244 13.4744 2.70596 12.6923H0.362213ZM5.45034 14.5C5.90173 14.5 6.27499 14.3552 6.57013 14.0654C6.86527 13.7757 7.01284 13.4206 7.01284 13C7.01284 12.5795 6.86527 12.2244 6.57013 11.9347C6.27499 11.6449 5.90173 11.5 5.45034 11.5C4.99895 11.5 4.62569 11.6449 4.33055 11.9347C4.03541 12.2244 3.88784 12.5795 3.88784 13C3.88784 13.4206 4.03541 13.7757 4.33055 14.0654C4.62569 14.3552 4.99895 14.5 5.45034 14.5ZM17.4295 14.5C17.8809 14.5 18.2542 14.3552 18.5493 14.0654C18.8444 13.7757 18.992 13.4206 18.992 13C18.992 12.5795 18.8444 12.2244 18.5493 11.9347C18.2542 11.6449 17.8809 11.5 17.4295 11.5C16.9781 11.5 16.6049 11.6449 16.3097 11.9347C16.0146 12.2244 15.867 12.5795 15.867 13C15.867 13.4206 16.0146 13.7757 16.3097 14.0654C16.6049 14.3552 16.9781 14.5 17.4295 14.5ZM14.8253 6.36543H20.6106L16.9608 2.19236H14.8253V6.36543Z" fill="#002F6C"/>
</svg>
