<svg width="18" height="17" viewBox="0 0 18 17" fill="none" xmlns="http://www.w3.org/2000/svg">
<path d="M12.202 8.66942L11.0303 7.4977C11.1515 6.86471 10.9697 6.27211 10.4848 5.71992C10 5.16774 9.37374 4.95225 8.60606 5.07346L7.43434 3.90174C7.6633 3.794 7.89562 3.71319 8.13131 3.65932C8.367 3.60545 8.61953 3.57851 8.88889 3.57851C9.89899 3.57851 10.7576 3.93204 11.4646 4.63912C12.1717 5.34619 12.5253 6.20477 12.5253 7.21487C12.5253 7.48423 12.4983 7.73676 12.4444 7.97245C12.3906 8.20814 12.3098 8.44046 12.202 8.66942ZM14.7879 11.2149L13.6162 10.0836C14.1279 9.69299 14.5825 9.26538 14.9798 8.80073C15.3771 8.33609 15.7172 7.80747 16 7.21487C15.3266 5.8546 14.3603 4.7738 13.101 3.97245C11.8417 3.1711 10.4377 2.77043 8.88889 2.77043C8.49832 2.77043 8.11448 2.79736 7.73737 2.85124C7.36027 2.90511 6.9899 2.98592 6.62626 3.09366L5.37374 1.84114C5.92593 1.61218 6.49158 1.44046 7.07071 1.32598C7.64983 1.21151 8.25589 1.15427 8.88889 1.15427C10.9226 1.15427 12.734 1.71656 14.3232 2.84114C15.9125 3.96572 17.064 5.42363 17.7778 7.21487C17.468 8.00949 17.0606 8.74686 16.5556 9.42699C16.0505 10.1071 15.4613 10.7031 14.7879 11.2149ZM15.1919 16.1846L11.798 12.831C11.3266 12.9792 10.8519 13.0903 10.3737 13.1644C9.89562 13.2384 9.40067 13.2755 8.88889 13.2755C6.85522 13.2755 5.04377 12.7132 3.45455 11.5886C1.86532 10.464 0.713805 9.00612 0 7.21487C0.282828 6.50107 0.639731 5.83777 1.07071 5.22497C1.50168 4.61218 1.99327 4.06336 2.54545 3.57851L0.323232 1.31588L1.45455 0.18457L16.3232 15.0533L15.1919 16.1846ZM3.67677 4.70982C3.2862 5.05999 2.92929 5.44383 2.60606 5.86134C2.28283 6.27885 2.00673 6.73002 1.77778 7.21487C2.45118 8.57514 3.41751 9.65595 4.67677 10.4573C5.93603 11.2586 7.34007 11.6593 8.88889 11.6593C9.15825 11.6593 9.42087 11.6425 9.67677 11.6088C9.93266 11.5751 10.1953 11.5381 10.4646 11.4977L9.73737 10.73C9.58922 10.7704 9.44781 10.8007 9.31313 10.8209C9.17845 10.8411 9.03704 10.8512 8.88889 10.8512C7.87879 10.8512 7.0202 10.4977 6.31313 9.79063C5.60606 9.08356 5.25252 8.22497 5.25252 7.21487C5.25252 7.06673 5.26263 6.92531 5.28283 6.79063C5.30303 6.65595 5.33333 6.51454 5.37374 6.36639L3.67677 4.70982Z" fill="#717276"/>
</svg>
