<svg width="24" height="24" viewBox="0 0 24 24" fill="none" xmlns="http://www.w3.org/2000/svg">
<mask id="mask0_269_2446" style="mask-type:alpha" maskUnits="userSpaceOnUse" x="0" y="0" width="24" height="24">
<rect width="24" height="24" fill="#D9D9D9"/>
</mask>
<g mask="url(#mask0_269_2446)">
<path d="M5.15776 21.3C4.47393 21.3 3.89335 21.0613 3.41601 20.584C2.93868 20.1066 2.70001 19.526 2.70001 18.8422V13H4.85001V18.8422C4.85001 18.9192 4.8821 18.9897 4.94626 19.0537C5.01026 19.1179 5.08076 19.15 5.15776 19.15H11V21.3H5.15776ZM13 21.3V19.15H18.8423C18.9193 19.15 18.9898 19.1179 19.0538 19.0537C19.1179 18.9897 19.15 18.9192 19.15 18.8422V13H21.3V18.8422C21.3 19.526 21.0613 20.1066 20.584 20.584C20.1067 21.0613 19.5261 21.3 18.8423 21.3H13ZM6.30001 17.25L9.18076 13.4615L11.2308 16.0692L14.0885 12.3155L17.7768 17.25H6.30001ZM2.70001 11V5.1577C2.70001 4.47387 2.93868 3.89328 3.41601 3.41595C3.89335 2.93862 4.47393 2.69995 5.15776 2.69995H11V4.84995H5.15776C5.08076 4.84995 5.01026 4.88203 4.94626 4.9462C4.8821 5.0102 4.85001 5.0807 4.85001 5.1577V11H2.70001ZM19.15 11V5.1577C19.15 5.0807 19.1179 5.0102 19.0538 4.9462C18.9898 4.88203 18.9193 4.84995 18.8423 4.84995H13V2.69995H18.8423C19.5261 2.69995 20.1067 2.93862 20.584 3.41595C21.0613 3.89328 21.3 4.47387 21.3 5.1577V11H19.15ZM15.6098 9.9537C15.1636 9.9537 14.7914 9.80662 14.4933 9.51245C14.1953 9.21828 14.0463 8.84812 14.0463 8.40195C14.0463 7.95579 14.1933 7.58362 14.4875 7.28545C14.7817 6.98745 15.1518 6.83845 15.598 6.83845C16.0442 6.83845 16.4163 6.98553 16.7145 7.2797C17.0125 7.57387 17.1615 7.94403 17.1615 8.3902C17.1615 8.83637 17.0144 9.20854 16.7203 9.5067C16.4261 9.8047 16.0559 9.9537 15.6098 9.9537Z" fill="#00A9DF"/>
</g>
</svg>
