<svg width="20" height="20" viewBox="0 0 20 20" fill="none" xmlns="http://www.w3.org/2000/svg">
<g id="account_balance_wallet">
<mask id="mask0_194_1834" style="mask-type:alpha" maskUnits="userSpaceOnUse" x="0" y="0" width="20" height="20">
<rect id="Bounding box" width="20" height="20" fill="#D9D9D9"/>
</mask>
<g mask="url(#mask0_194_1834)">
<path id="account_balance_wallet_2" d="M4.63146 17.25C4.09507 17.25 3.64736 17.0706 3.28833 16.7117C2.92944 16.3526 2.75 15.9049 2.75 15.3685V4.63146C2.75 4.09507 2.92944 3.64736 3.28833 3.28833C3.64736 2.92944 4.09507 2.75 4.63146 2.75H15.3685C15.9049 2.75 16.3526 2.92944 16.7117 3.28833C17.0706 3.64736 17.25 4.09507 17.25 4.63146V6.39917H15.625V4.63146C15.625 4.5566 15.601 4.49514 15.5529 4.44708C15.5049 4.39903 15.4434 4.375 15.3685 4.375H4.63146C4.5566 4.375 4.49514 4.39903 4.44708 4.44708C4.39903 4.49514 4.375 4.5566 4.375 4.63146V15.3685C4.375 15.4434 4.39903 15.5049 4.44708 15.5529C4.49514 15.601 4.5566 15.625 4.63146 15.625H15.3685C15.4434 15.625 15.5049 15.601 15.5529 15.5529C15.601 15.5049 15.625 15.4434 15.625 15.3685V13.58H17.25V15.3685C17.25 15.9049 17.0706 16.3526 16.7117 16.7117C16.3526 17.0706 15.9049 17.25 15.3685 17.25H4.63146ZM10.4648 14.1667C10.0263 14.1667 9.65174 14.0185 9.34104 13.7221C9.03035 13.4256 8.875 13.058 8.875 12.6194V7.38063C8.875 6.94201 9.03035 6.57445 9.34104 6.27792C9.65174 5.98153 10.0263 5.83333 10.4648 5.83333H16.6602C17.0987 5.83333 17.4733 5.98153 17.784 6.27792C18.0947 6.57445 18.25 6.94201 18.25 7.38063V12.6194C18.25 13.058 18.0947 13.4256 17.784 13.7221C17.4733 14.0185 17.0987 14.1667 16.6602 14.1667H10.4648ZM16.3685 12.5417C16.4434 12.5417 16.5049 12.5176 16.5529 12.4696C16.601 12.4215 16.625 12.3601 16.625 12.2852V7.71479C16.625 7.63993 16.601 7.57847 16.5529 7.53042C16.5049 7.48236 16.4434 7.45833 16.3685 7.45833H10.7565C10.6816 7.45833 10.6201 7.48236 10.5721 7.53042C10.524 7.57847 10.5 7.63993 10.5 7.71479V12.2852C10.5 12.3601 10.524 12.4215 10.5721 12.4696C10.6201 12.5176 10.6816 12.5417 10.7565 12.5417H16.3685ZM13.5417 11.25C13.8889 11.25 14.184 11.1285 14.4271 10.8854C14.6701 10.6424 14.7917 10.3472 14.7917 10C14.7917 9.65278 14.6701 9.35764 14.4271 9.11458C14.184 8.87153 13.8889 8.75 13.5417 8.75C13.1944 8.75 12.8993 8.87153 12.6562 9.11458C12.4132 9.35764 12.2917 9.65278 12.2917 10C12.2917 10.3472 12.4132 10.6424 12.6562 10.8854C12.8993 11.1285 13.1944 11.25 13.5417 11.25Z" fill="#00A9DF"/>
</g>
</g>
</svg>
