<svg width="22" height="22" viewBox="0 0 22 22" fill="none" xmlns="http://www.w3.org/2000/svg">
<path d="M10.997 21.2999C9.58253 21.2999 8.2472 21.0299 6.99095 20.4899C5.73472 19.9499 4.64217 19.2155 3.7133 18.2866C2.78445 17.3578 2.05003 16.2652 1.51003 15.009C0.970026 13.7527 0.700026 12.4174 0.700026 11.003C0.700026 9.58658 0.970542 8.24928 1.51158 6.99108C2.05259 5.73289 2.78656 4.64034 3.71348 3.7134C4.64041 2.78649 5.73281 2.05252 6.99068 1.5115C8.24853 0.970469 9.58393 0.699951 10.9969 0.699951C12.4118 0.699951 13.7487 0.970469 15.0077 1.5115C16.2666 2.05252 17.3596 2.78649 18.2865 3.7134C19.2134 4.64034 19.9474 5.73289 20.4884 6.99108C21.0295 8.24928 21.3 9.58658 21.3 11.003C21.3 12.4174 21.0295 13.7532 20.4884 15.0103C19.9474 16.2675 19.2134 17.3595 18.2865 18.2865C17.3596 19.2134 16.267 19.9473 15.0089 20.4884C13.7507 21.0294 12.4134 21.2999 10.997 21.2999ZM11 17.2538C12.7372 17.2538 14.2138 16.6458 15.4298 15.4298C16.6459 14.2137 17.2539 12.7371 17.2539 10.9999C17.2539 9.26274 16.6459 7.78614 15.4298 6.5701C14.2138 5.35407 12.7372 4.74605 11 4.74605C9.26282 4.74605 7.78621 5.35407 6.57018 6.5701C5.35414 7.78614 4.74613 9.26274 4.74613 10.9999C4.74613 12.7371 5.35414 14.2137 6.57018 15.4298C7.78621 16.6458 9.26282 17.2538 11 17.2538Z" fill="#002F6C"/>
</svg>
