<svg width="25" height="24" viewBox="0 0 25 24" fill="none" xmlns="http://www.w3.org/2000/svg">
<mask id="mask0_82_3894" style="mask-type:alpha" maskUnits="userSpaceOnUse" x="0" y="0" width="25" height="24">
<rect x="0.5" width="24" height="24" fill="#D9D9D9"/>
</mask>
<g mask="url(#mask0_82_3894)">
<path d="M4 20.1538V7.15381H8V3.15381H17V11.1538H21V20.1538H14V16.1538H11V20.1538H4ZM5 19.1538H8V16.1538H5V19.1538ZM5 15.1538H8V12.1538H5V15.1538ZM5 11.1538H8V8.15381H5V11.1538ZM9 15.1538H12V12.1538H9V15.1538ZM9 11.1538H12V8.15381H9V11.1538ZM9 7.15381H12V4.15381H9V7.15381ZM13 15.1538H16V12.1538H13V15.1538ZM13 11.1538H16V8.15381H13V11.1538ZM13 7.15381H16V4.15381H13V7.15381ZM17 19.1538H20V16.1538H17V19.1538ZM17 15.1538H20V12.1538H17V15.1538Z" fill="#00A9DF"/>
</g>
</svg>
