<svg width="40" height="41" viewBox="0 0 40 41" fill="none" xmlns="http://www.w3.org/2000/svg">
<mask id="mask0_120_5299" style="mask-type:alpha" maskUnits="userSpaceOnUse" x="0" y="0" width="40" height="41">
<rect y="0.5" width="40" height="40" fill="#D9D9D9"/>
</mask>
<g mask="url(#mask0_120_5299)">
<path d="M3.72229 36.2564V11.1988H11.3526V3.58984H28.7244V18.8847H36.3333V36.2564H23.0022V28.6261H16.9979V36.2564H3.72229ZM5.85475 34.124H11.3526V28.6261H5.85475V34.124ZM5.85475 26.4936H11.3526V21.0171H5.85475V26.4936ZM5.85475 18.8291H11.3526V13.3313H5.85475V18.8291ZM13.4851 26.4936H18.9616V21.0171H13.4851V26.4936ZM13.4851 18.8291H18.9616V13.3313H13.4851V18.8291ZM13.4851 11.1988H18.9616V5.7223H13.4851V11.1988ZM21.094 26.4936H26.5919V21.0171H21.094V26.4936ZM21.094 18.8291H26.5919V13.3313H21.094V18.8291ZM21.094 11.1988H26.5919V5.7223H21.094V11.1988ZM28.7244 34.124H34.2009V28.6261H28.7244V34.124ZM28.7244 26.4936H34.2009V21.0171H28.7244V26.4936Z" fill="#959699"/>
</g>
</svg>
